<mxfile host="65bd71144e">
    <diagram id="rnrRETvfVvz3Ju71S818" name="Page-1">
        <mxGraphModel dx="5491" dy="3365" grid="1" gridSize="10" guides="1" tooltips="1" connect="1" arrows="1" fold="1" page="1" pageScale="1" pageWidth="827" pageHeight="1169" math="0" shadow="0">
            <root>
                <mxCell id="0"/>
                <mxCell id="1" parent="0"/>
                <mxCell id="2" value="" style="whiteSpace=wrap;html=1;" vertex="1" parent="1">
                    <mxGeometry x="40" y="40" width="480" height="240" as="geometry"/>
                </mxCell>
                <mxCell id="4" value="Home Page" style="text;strokeColor=none;align=left;fillColor=none;html=1;verticalAlign=middle;whiteSpace=wrap;rounded=0;" vertex="1" parent="1">
                    <mxGeometry x="40" y="20" width="120" height="10" as="geometry"/>
                </mxCell>
                <mxCell id="5" style="edgeStyle=none;html=1;exitX=1;exitY=0;exitDx=0;exitDy=0;endArrow=none;endFill=0;strokeColor=#B3B3B3;entryX=0;entryY=1;entryDx=0;entryDy=0;" edge="1" parent="1" source="2" target="2">
                    <mxGeometry relative="1" as="geometry">
                        <mxPoint x="630" y="60.00000000000006" as="sourcePoint"/>
                        <mxPoint x="630" y="189.23076923076928" as="targetPoint"/>
                    </mxGeometry>
                </mxCell>
                <mxCell id="6" style="edgeStyle=none;html=1;exitX=1;exitY=1;exitDx=0;exitDy=0;endArrow=none;endFill=0;strokeColor=#B3B3B3;entryX=0;entryY=0;entryDx=0;entryDy=0;" edge="1" parent="1" source="2" target="2">
                    <mxGeometry relative="1" as="geometry">
                        <mxPoint x="710" y="140" as="sourcePoint"/>
                        <mxPoint x="230" y="380" as="targetPoint"/>
                    </mxGeometry>
                </mxCell>
                <mxCell id="7" value="Image" style="text;strokeColor=none;align=center;fillColor=none;html=1;verticalAlign=middle;whiteSpace=wrap;rounded=0;fontColor=#999999;" vertex="1" parent="1">
                    <mxGeometry x="250" y="260" width="60" height="10" as="geometry"/>
                </mxCell>
                <mxCell id="8" value="" style="whiteSpace=wrap;html=1;" vertex="1" parent="1">
                    <mxGeometry x="40" y="40" width="480" height="30" as="geometry"/>
                </mxCell>
                <mxCell id="9" value="Header" style="text;strokeColor=none;align=center;fillColor=none;html=1;verticalAlign=middle;whiteSpace=wrap;rounded=0;fontSize=9;" vertex="1" parent="1">
                    <mxGeometry x="-10" y="45" width="40" height="20" as="geometry"/>
                </mxCell>
                <mxCell id="12" value="Logo" style="whiteSpace=wrap;html=1;fillColor=#eeeeee;strokeColor=#36393d;fontSize=9;" vertex="1" parent="1">
                    <mxGeometry x="50" y="45" width="50" height="20" as="geometry"/>
                </mxCell>
                <mxCell id="13" value="nav" style="whiteSpace=wrap;html=1;" vertex="1" parent="1">
                    <mxGeometry x="250" y="50" width="160" height="15" as="geometry"/>
                </mxCell>
                <mxCell id="14" value="" style="whiteSpace=wrap;html=1;" vertex="1" parent="1">
                    <mxGeometry x="40" y="280" width="480" height="240" as="geometry"/>
                </mxCell>
                <mxCell id="15" value="" style="whiteSpace=wrap;html=1;" vertex="1" parent="1">
                    <mxGeometry x="40" y="520" width="480" height="240" as="geometry"/>
                </mxCell>
                <mxCell id="16" value="Copyright" style="whiteSpace=wrap;html=1;fontSize=9;" vertex="1" parent="1">
                    <mxGeometry x="40" y="760" width="480" height="30" as="geometry"/>
                </mxCell>
                <mxCell id="17" value="Footer" style="text;strokeColor=none;align=center;fillColor=none;html=1;verticalAlign=middle;whiteSpace=wrap;rounded=0;fontSize=9;" vertex="1" parent="1">
                    <mxGeometry x="-10" y="760" width="40" height="20" as="geometry"/>
                </mxCell>
                <mxCell id="18" value="Main" style="text;strokeColor=none;align=center;fillColor=none;html=1;verticalAlign=middle;whiteSpace=wrap;rounded=0;fontSize=9;" vertex="1" parent="1">
                    <mxGeometry x="-10" y="70" width="40" height="20" as="geometry"/>
                </mxCell>
                <mxCell id="19" value="Phrase accroche" style="text;strokeColor=none;align=center;fillColor=none;html=1;verticalAlign=middle;whiteSpace=wrap;rounded=0;fontSize=20;" vertex="1" parent="1">
                    <mxGeometry x="175" y="145" width="210" height="30" as="geometry"/>
                </mxCell>
                <mxCell id="20" value="" style="whiteSpace=wrap;html=1;" vertex="1" parent="1">
                    <mxGeometry x="90" y="340" width="120" height="120" as="geometry"/>
                </mxCell>
                <mxCell id="21" style="edgeStyle=none;html=1;exitX=1;exitY=0;exitDx=0;exitDy=0;endArrow=none;endFill=0;strokeColor=#B3B3B3;entryX=0;entryY=1;entryDx=0;entryDy=0;" edge="1" parent="1" source="20" target="20">
                    <mxGeometry relative="1" as="geometry">
                        <mxPoint x="680" y="240.00000000000006" as="sourcePoint"/>
                        <mxPoint x="680" y="369.2307692307693" as="targetPoint"/>
                    </mxGeometry>
                </mxCell>
                <mxCell id="22" style="edgeStyle=none;html=1;exitX=1;exitY=1;exitDx=0;exitDy=0;endArrow=none;endFill=0;strokeColor=#B3B3B3;entryX=0;entryY=0;entryDx=0;entryDy=0;" edge="1" parent="1" source="20" target="20">
                    <mxGeometry relative="1" as="geometry">
                        <mxPoint x="760" y="320" as="sourcePoint"/>
                        <mxPoint x="280" y="560" as="targetPoint"/>
                    </mxGeometry>
                </mxCell>
                <mxCell id="23" value="Image" style="text;strokeColor=none;align=center;fillColor=none;html=1;verticalAlign=middle;whiteSpace=wrap;rounded=0;fontColor=#999999;" vertex="1" parent="1">
                    <mxGeometry x="120" y="440" width="60" height="10" as="geometry"/>
                </mxCell>
                <mxCell id="24" value="Qui sommes-nous?" style="text;strokeColor=none;align=left;fillColor=none;html=1;verticalAlign=middle;whiteSpace=wrap;rounded=0;fontSize=16;" vertex="1" parent="1">
                    <mxGeometry x="260" y="340" width="210" height="20" as="geometry"/>
                </mxCell>
                <mxCell id="26" value="Texte" style="whiteSpace=wrap;html=1;fontSize=12;" vertex="1" parent="1">
                    <mxGeometry x="260" y="360" width="210" height="70" as="geometry"/>
                </mxCell>
                <mxCell id="27" value="En savoir plus" style="whiteSpace=wrap;html=1;fillColor=#eeeeee;strokeColor=#36393d;fontSize=9;" vertex="1" parent="1">
                    <mxGeometry x="410" y="440" width="60" height="20" as="geometry"/>
                </mxCell>
                <mxCell id="28" value="Nos nouveaux arbres" style="text;strokeColor=none;align=left;fillColor=none;html=1;verticalAlign=middle;whiteSpace=wrap;rounded=0;fontSize=16;" vertex="1" parent="1">
                    <mxGeometry x="90" y="550" width="210" height="20" as="geometry"/>
                </mxCell>
                <mxCell id="29" value="" style="whiteSpace=wrap;html=1;" vertex="1" parent="1">
                    <mxGeometry x="90" y="585" width="80" height="85" as="geometry"/>
                </mxCell>
                <mxCell id="30" style="edgeStyle=none;html=1;exitX=1;exitY=0;exitDx=0;exitDy=0;endArrow=none;endFill=0;strokeColor=#B3B3B3;entryX=0;entryY=1;entryDx=0;entryDy=0;" edge="1" parent="1" source="29" target="29">
                    <mxGeometry relative="1" as="geometry">
                        <mxPoint x="680" y="485.00000000000006" as="sourcePoint"/>
                        <mxPoint x="680" y="614.2307692307693" as="targetPoint"/>
                    </mxGeometry>
                </mxCell>
                <mxCell id="31" style="edgeStyle=none;html=1;exitX=1;exitY=1;exitDx=0;exitDy=0;endArrow=none;endFill=0;strokeColor=#B3B3B3;entryX=0;entryY=0;entryDx=0;entryDy=0;" edge="1" parent="1" source="29" target="29">
                    <mxGeometry relative="1" as="geometry">
                        <mxPoint x="760" y="565" as="sourcePoint"/>
                        <mxPoint x="280" y="805" as="targetPoint"/>
                    </mxGeometry>
                </mxCell>
                <mxCell id="32" value="Image" style="text;strokeColor=none;align=center;fillColor=none;html=1;verticalAlign=middle;whiteSpace=wrap;rounded=0;fontColor=#999999;" vertex="1" parent="1">
                    <mxGeometry x="100" y="650" width="60" height="10" as="geometry"/>
                </mxCell>
                <mxCell id="33" value="&lt;font style=&quot;font-size: 9px;&quot;&gt;Nom arbre&lt;/font&gt;&lt;div&gt;&lt;font style=&quot;font-size: 9px;&quot;&gt;Localisation&lt;/font&gt;&lt;/div&gt;" style="whiteSpace=wrap;html=1;fontSize=12;align=left;" vertex="1" parent="1">
                    <mxGeometry x="90" y="670" width="80" height="40" as="geometry"/>
                </mxCell>
                <mxCell id="34" value="" style="whiteSpace=wrap;html=1;" vertex="1" parent="1">
                    <mxGeometry x="240" y="584" width="80" height="85" as="geometry"/>
                </mxCell>
                <mxCell id="35" style="edgeStyle=none;html=1;exitX=1;exitY=0;exitDx=0;exitDy=0;endArrow=none;endFill=0;strokeColor=#B3B3B3;entryX=0;entryY=1;entryDx=0;entryDy=0;" edge="1" parent="1" source="34" target="34">
                    <mxGeometry relative="1" as="geometry">
                        <mxPoint x="830" y="484.00000000000006" as="sourcePoint"/>
                        <mxPoint x="830" y="613.2307692307693" as="targetPoint"/>
                    </mxGeometry>
                </mxCell>
                <mxCell id="36" style="edgeStyle=none;html=1;exitX=1;exitY=1;exitDx=0;exitDy=0;endArrow=none;endFill=0;strokeColor=#B3B3B3;entryX=0;entryY=0;entryDx=0;entryDy=0;" edge="1" parent="1" source="34" target="34">
                    <mxGeometry relative="1" as="geometry">
                        <mxPoint x="910" y="564" as="sourcePoint"/>
                        <mxPoint x="430" y="804" as="targetPoint"/>
                    </mxGeometry>
                </mxCell>
                <mxCell id="37" value="&lt;font style=&quot;font-size: 9px;&quot;&gt;Nom arbre&lt;/font&gt;&lt;div&gt;&lt;font style=&quot;font-size: 9px;&quot;&gt;Localisation&lt;/font&gt;&lt;/div&gt;" style="whiteSpace=wrap;html=1;fontSize=12;align=left;" vertex="1" parent="1">
                    <mxGeometry x="240" y="669" width="80" height="40" as="geometry"/>
                </mxCell>
                <mxCell id="38" value="" style="whiteSpace=wrap;html=1;" vertex="1" parent="1">
                    <mxGeometry x="390" y="585" width="80" height="85" as="geometry"/>
                </mxCell>
                <mxCell id="39" style="edgeStyle=none;html=1;exitX=1;exitY=0;exitDx=0;exitDy=0;endArrow=none;endFill=0;strokeColor=#B3B3B3;entryX=0;entryY=1;entryDx=0;entryDy=0;" edge="1" parent="1" source="38" target="38">
                    <mxGeometry relative="1" as="geometry">
                        <mxPoint x="980" y="485.00000000000006" as="sourcePoint"/>
                        <mxPoint x="980" y="614.2307692307693" as="targetPoint"/>
                    </mxGeometry>
                </mxCell>
                <mxCell id="40" style="edgeStyle=none;html=1;exitX=1;exitY=1;exitDx=0;exitDy=0;endArrow=none;endFill=0;strokeColor=#B3B3B3;entryX=0;entryY=0;entryDx=0;entryDy=0;" edge="1" parent="1" source="38" target="38">
                    <mxGeometry relative="1" as="geometry">
                        <mxPoint x="1060" y="565" as="sourcePoint"/>
                        <mxPoint x="580" y="805" as="targetPoint"/>
                    </mxGeometry>
                </mxCell>
                <mxCell id="41" value="&lt;font style=&quot;font-size: 9px;&quot;&gt;Nom arbre&lt;/font&gt;&lt;div&gt;&lt;font style=&quot;font-size: 9px;&quot;&gt;Localisation&lt;/font&gt;&lt;/div&gt;" style="whiteSpace=wrap;html=1;fontSize=12;align=left;" vertex="1" parent="1">
                    <mxGeometry x="390" y="670" width="80" height="40" as="geometry"/>
                </mxCell>
                <mxCell id="42" value="Voir tous nos arbres" style="whiteSpace=wrap;html=1;fillColor=#eeeeee;strokeColor=#36393d;fontSize=9;" vertex="1" parent="1">
                    <mxGeometry x="390" y="730" width="83" height="20" as="geometry"/>
                </mxCell>
                <mxCell id="43" value="" style="whiteSpace=wrap;html=1;" vertex="1" parent="1">
                    <mxGeometry x="700" y="40" width="480" height="580" as="geometry"/>
                </mxCell>
                <mxCell id="44" value="Catalogue" style="text;strokeColor=none;align=left;fillColor=none;html=1;verticalAlign=middle;whiteSpace=wrap;rounded=0;" vertex="1" parent="1">
                    <mxGeometry x="700" y="20" width="120" height="10" as="geometry"/>
                </mxCell>
                <mxCell id="48" value="" style="whiteSpace=wrap;html=1;" vertex="1" parent="1">
                    <mxGeometry x="700" y="40" width="480" height="30" as="geometry"/>
                </mxCell>
                <mxCell id="49" value="Header" style="text;strokeColor=none;align=center;fillColor=none;html=1;verticalAlign=middle;whiteSpace=wrap;rounded=0;fontSize=9;" vertex="1" parent="1">
                    <mxGeometry x="650" y="45" width="40" height="20" as="geometry"/>
                </mxCell>
                <mxCell id="50" value="Logo" style="whiteSpace=wrap;html=1;fillColor=#eeeeee;strokeColor=#36393d;fontSize=9;" vertex="1" parent="1">
                    <mxGeometry x="710" y="45" width="50" height="20" as="geometry"/>
                </mxCell>
                <mxCell id="51" value="nav" style="whiteSpace=wrap;html=1;" vertex="1" parent="1">
                    <mxGeometry x="910" y="50" width="160" height="15" as="geometry"/>
                </mxCell>
                <mxCell id="56" value="Main" style="text;strokeColor=none;align=center;fillColor=none;html=1;verticalAlign=middle;whiteSpace=wrap;rounded=0;fontSize=9;" vertex="1" parent="1">
                    <mxGeometry x="650" y="70" width="40" height="20" as="geometry"/>
                </mxCell>
                <mxCell id="57" value="Nos arbres" style="text;strokeColor=none;align=left;fillColor=none;html=1;verticalAlign=middle;whiteSpace=wrap;rounded=0;fontSize=20;" vertex="1" parent="1">
                    <mxGeometry x="750" y="100" width="210" height="30" as="geometry"/>
                </mxCell>
                <mxCell id="81" value="filtres" style="whiteSpace=wrap;html=1;align=left;" vertex="1" parent="1">
                    <mxGeometry x="753" y="140" width="380" height="15" as="geometry"/>
                </mxCell>
                <mxCell id="87" value="" style="group" vertex="1" connectable="0" parent="1">
                    <mxGeometry x="750" y="211" width="80" height="140" as="geometry"/>
                </mxCell>
                <mxCell id="66" value="" style="whiteSpace=wrap;html=1;" vertex="1" parent="87">
                    <mxGeometry width="80" height="85" as="geometry"/>
                </mxCell>
                <mxCell id="67" style="edgeStyle=none;html=1;exitX=1;exitY=0;exitDx=0;exitDy=0;endArrow=none;endFill=0;strokeColor=#B3B3B3;entryX=0;entryY=1;entryDx=0;entryDy=0;" edge="1" parent="87" source="66" target="66">
                    <mxGeometry relative="1" as="geometry">
                        <mxPoint x="590" y="-99.99999999999994" as="sourcePoint"/>
                        <mxPoint x="590" y="29.230769230769283" as="targetPoint"/>
                    </mxGeometry>
                </mxCell>
                <mxCell id="68" style="edgeStyle=none;html=1;exitX=1;exitY=1;exitDx=0;exitDy=0;endArrow=none;endFill=0;strokeColor=#B3B3B3;entryX=0;entryY=0;entryDx=0;entryDy=0;" edge="1" parent="87" source="66" target="66">
                    <mxGeometry relative="1" as="geometry">
                        <mxPoint x="670" y="-20" as="sourcePoint"/>
                        <mxPoint x="190" y="220" as="targetPoint"/>
                    </mxGeometry>
                </mxCell>
                <mxCell id="69" value="Image" style="text;strokeColor=none;align=center;fillColor=none;html=1;verticalAlign=middle;whiteSpace=wrap;rounded=0;fontColor=#999999;" vertex="1" parent="87">
                    <mxGeometry x="10" y="65" width="60" height="10" as="geometry"/>
                </mxCell>
                <mxCell id="70" value="&lt;font style=&quot;font-size: 9px;&quot;&gt;Nom arbre&lt;/font&gt;&lt;div&gt;&lt;font style=&quot;font-size: 9px;&quot;&gt;Localisation&lt;/font&gt;&lt;/div&gt;&lt;div&gt;&lt;font style=&quot;font-size: 9px;&quot;&gt;Prix&lt;/font&gt;&lt;/div&gt;" style="whiteSpace=wrap;html=1;fontSize=12;align=left;" vertex="1" parent="87">
                    <mxGeometry y="85" width="80" height="55" as="geometry"/>
                </mxCell>
                <mxCell id="106" value="" style="group" vertex="1" connectable="0" parent="1">
                    <mxGeometry x="650" y="620" width="530" height="30" as="geometry"/>
                </mxCell>
                <mxCell id="54" value="Copyright" style="whiteSpace=wrap;html=1;fontSize=9;" vertex="1" parent="106">
                    <mxGeometry x="50" width="480" height="30" as="geometry"/>
                </mxCell>
                <mxCell id="55" value="Footer" style="text;strokeColor=none;align=center;fillColor=none;html=1;verticalAlign=middle;whiteSpace=wrap;rounded=0;fontSize=9;" vertex="1" parent="106">
                    <mxGeometry width="40" height="20" as="geometry"/>
                </mxCell>
                <mxCell id="220" value="" style="whiteSpace=wrap;html=1;" vertex="1" parent="1">
                    <mxGeometry x="700" y="-1110" width="480" height="1030" as="geometry"/>
                </mxCell>
                <mxCell id="221" value="Catalogue - variante" style="text;strokeColor=none;align=left;fillColor=none;html=1;verticalAlign=middle;whiteSpace=wrap;rounded=0;" vertex="1" parent="1">
                    <mxGeometry x="700" y="-1130" width="120" height="10" as="geometry"/>
                </mxCell>
                <mxCell id="222" value="" style="whiteSpace=wrap;html=1;" vertex="1" parent="1">
                    <mxGeometry x="700" y="-1110" width="480" height="30" as="geometry"/>
                </mxCell>
                <mxCell id="223" value="Header" style="text;strokeColor=none;align=center;fillColor=none;html=1;verticalAlign=middle;whiteSpace=wrap;rounded=0;fontSize=9;" vertex="1" parent="1">
                    <mxGeometry x="650" y="-1105" width="40" height="20" as="geometry"/>
                </mxCell>
                <mxCell id="224" value="Logo" style="whiteSpace=wrap;html=1;fillColor=#eeeeee;strokeColor=#36393d;fontSize=9;" vertex="1" parent="1">
                    <mxGeometry x="710" y="-1105" width="50" height="20" as="geometry"/>
                </mxCell>
                <mxCell id="225" value="nav" style="whiteSpace=wrap;html=1;" vertex="1" parent="1">
                    <mxGeometry x="960" y="-1100" width="210" height="15" as="geometry"/>
                </mxCell>
                <mxCell id="226" value="Main" style="text;strokeColor=none;align=center;fillColor=none;html=1;verticalAlign=middle;whiteSpace=wrap;rounded=0;fontSize=9;" vertex="1" parent="1">
                    <mxGeometry x="650" y="-1080" width="40" height="20" as="geometry"/>
                </mxCell>
                <mxCell id="227" value="Nos arbres" style="text;strokeColor=none;align=left;fillColor=none;html=1;verticalAlign=middle;whiteSpace=wrap;rounded=0;fontSize=20;" vertex="1" parent="1">
                    <mxGeometry x="750" y="-1050" width="210" height="30" as="geometry"/>
                </mxCell>
                <mxCell id="228" value="France" style="text;strokeColor=none;align=left;fillColor=none;html=1;verticalAlign=middle;whiteSpace=wrap;rounded=0;fontSize=16;" vertex="1" parent="1">
                    <mxGeometry x="753" y="-975" width="210" height="20" as="geometry"/>
                </mxCell>
                <mxCell id="229" value="filtres" style="whiteSpace=wrap;html=1;align=left;" vertex="1" parent="1">
                    <mxGeometry x="753" y="-1010" width="380" height="15" as="geometry"/>
                </mxCell>
                <mxCell id="230" value="" style="group" vertex="1" connectable="0" parent="1">
                    <mxGeometry x="750" y="-939" width="80" height="125" as="geometry"/>
                </mxCell>
                <mxCell id="231" value="" style="whiteSpace=wrap;html=1;" vertex="1" parent="230">
                    <mxGeometry width="80" height="85" as="geometry"/>
                </mxCell>
                <mxCell id="232" style="edgeStyle=none;html=1;exitX=1;exitY=0;exitDx=0;exitDy=0;endArrow=none;endFill=0;strokeColor=#B3B3B3;entryX=0;entryY=1;entryDx=0;entryDy=0;" edge="1" parent="230" source="231" target="231">
                    <mxGeometry relative="1" as="geometry">
                        <mxPoint x="590" y="-99.99999999999994" as="sourcePoint"/>
                        <mxPoint x="590" y="29.230769230769283" as="targetPoint"/>
                    </mxGeometry>
                </mxCell>
                <mxCell id="233" style="edgeStyle=none;html=1;exitX=1;exitY=1;exitDx=0;exitDy=0;endArrow=none;endFill=0;strokeColor=#B3B3B3;entryX=0;entryY=0;entryDx=0;entryDy=0;" edge="1" parent="230" source="231" target="231">
                    <mxGeometry relative="1" as="geometry">
                        <mxPoint x="670" y="-20" as="sourcePoint"/>
                        <mxPoint x="190" y="220" as="targetPoint"/>
                    </mxGeometry>
                </mxCell>
                <mxCell id="234" value="Image" style="text;strokeColor=none;align=center;fillColor=none;html=1;verticalAlign=middle;whiteSpace=wrap;rounded=0;fontColor=#999999;" vertex="1" parent="230">
                    <mxGeometry x="10" y="65" width="60" height="10" as="geometry"/>
                </mxCell>
                <mxCell id="235" value="&lt;font style=&quot;font-size: 9px;&quot;&gt;Nom arbre&lt;/font&gt;&lt;div&gt;&lt;font style=&quot;font-size: 9px;&quot;&gt;Localisation&lt;/font&gt;&lt;/div&gt;" style="whiteSpace=wrap;html=1;fontSize=12;align=left;" vertex="1" parent="230">
                    <mxGeometry y="85" width="80" height="40" as="geometry"/>
                </mxCell>
                <mxCell id="236" value="" style="group" vertex="1" connectable="0" parent="1">
                    <mxGeometry x="900" y="-939" width="80" height="125" as="geometry"/>
                </mxCell>
                <mxCell id="237" value="" style="whiteSpace=wrap;html=1;" vertex="1" parent="236">
                    <mxGeometry width="80" height="85" as="geometry"/>
                </mxCell>
                <mxCell id="238" style="edgeStyle=none;html=1;exitX=1;exitY=0;exitDx=0;exitDy=0;endArrow=none;endFill=0;strokeColor=#B3B3B3;entryX=0;entryY=1;entryDx=0;entryDy=0;" edge="1" parent="236" source="237" target="237">
                    <mxGeometry relative="1" as="geometry">
                        <mxPoint x="590" y="-99.99999999999994" as="sourcePoint"/>
                        <mxPoint x="590" y="29.230769230769283" as="targetPoint"/>
                    </mxGeometry>
                </mxCell>
                <mxCell id="239" style="edgeStyle=none;html=1;exitX=1;exitY=1;exitDx=0;exitDy=0;endArrow=none;endFill=0;strokeColor=#B3B3B3;entryX=0;entryY=0;entryDx=0;entryDy=0;" edge="1" parent="236" source="237" target="237">
                    <mxGeometry relative="1" as="geometry">
                        <mxPoint x="670" y="-20" as="sourcePoint"/>
                        <mxPoint x="190" y="220" as="targetPoint"/>
                    </mxGeometry>
                </mxCell>
                <mxCell id="240" value="Image" style="text;strokeColor=none;align=center;fillColor=none;html=1;verticalAlign=middle;whiteSpace=wrap;rounded=0;fontColor=#999999;" vertex="1" parent="236">
                    <mxGeometry x="10" y="65" width="60" height="10" as="geometry"/>
                </mxCell>
                <mxCell id="241" value="&lt;font style=&quot;font-size: 9px;&quot;&gt;Nom arbre&lt;/font&gt;&lt;div&gt;&lt;font style=&quot;font-size: 9px;&quot;&gt;Localisation&lt;/font&gt;&lt;/div&gt;" style="whiteSpace=wrap;html=1;fontSize=12;align=left;" vertex="1" parent="236">
                    <mxGeometry y="85" width="80" height="40" as="geometry"/>
                </mxCell>
                <mxCell id="242" value="" style="group" vertex="1" connectable="0" parent="1">
                    <mxGeometry x="1050" y="-940" width="80" height="125" as="geometry"/>
                </mxCell>
                <mxCell id="243" value="" style="whiteSpace=wrap;html=1;" vertex="1" parent="242">
                    <mxGeometry width="80" height="85" as="geometry"/>
                </mxCell>
                <mxCell id="244" style="edgeStyle=none;html=1;exitX=1;exitY=0;exitDx=0;exitDy=0;endArrow=none;endFill=0;strokeColor=#B3B3B3;entryX=0;entryY=1;entryDx=0;entryDy=0;" edge="1" parent="242" source="243" target="243">
                    <mxGeometry relative="1" as="geometry">
                        <mxPoint x="590" y="-99.99999999999994" as="sourcePoint"/>
                        <mxPoint x="590" y="29.230769230769283" as="targetPoint"/>
                    </mxGeometry>
                </mxCell>
                <mxCell id="245" style="edgeStyle=none;html=1;exitX=1;exitY=1;exitDx=0;exitDy=0;endArrow=none;endFill=0;strokeColor=#B3B3B3;entryX=0;entryY=0;entryDx=0;entryDy=0;" edge="1" parent="242" source="243" target="243">
                    <mxGeometry relative="1" as="geometry">
                        <mxPoint x="670" y="-20" as="sourcePoint"/>
                        <mxPoint x="190" y="220" as="targetPoint"/>
                    </mxGeometry>
                </mxCell>
                <mxCell id="246" value="Image" style="text;strokeColor=none;align=center;fillColor=none;html=1;verticalAlign=middle;whiteSpace=wrap;rounded=0;fontColor=#999999;" vertex="1" parent="242">
                    <mxGeometry x="10" y="65" width="60" height="10" as="geometry"/>
                </mxCell>
                <mxCell id="247" value="&lt;font style=&quot;font-size: 9px;&quot;&gt;Nom arbre&lt;/font&gt;&lt;div&gt;&lt;font style=&quot;font-size: 9px;&quot;&gt;Localisation&lt;/font&gt;&lt;/div&gt;" style="whiteSpace=wrap;html=1;fontSize=12;align=left;" vertex="1" parent="242">
                    <mxGeometry y="85" width="80" height="40" as="geometry"/>
                </mxCell>
                <mxCell id="248" value="" style="group" vertex="1" connectable="0" parent="1">
                    <mxGeometry x="750" y="-780" width="400" height="201" as="geometry"/>
                </mxCell>
                <mxCell id="249" value="" style="whiteSpace=wrap;html=1;" vertex="1" parent="248">
                    <mxGeometry width="80" height="85" as="geometry"/>
                </mxCell>
                <mxCell id="250" style="edgeStyle=none;html=1;exitX=1;exitY=0;exitDx=0;exitDy=0;endArrow=none;endFill=0;strokeColor=#B3B3B3;entryX=0;entryY=1;entryDx=0;entryDy=0;" edge="1" parent="248" source="249" target="249">
                    <mxGeometry relative="1" as="geometry">
                        <mxPoint x="590" y="-99.99999999999994" as="sourcePoint"/>
                        <mxPoint x="590" y="29.230769230769283" as="targetPoint"/>
                    </mxGeometry>
                </mxCell>
                <mxCell id="251" style="edgeStyle=none;html=1;exitX=1;exitY=1;exitDx=0;exitDy=0;endArrow=none;endFill=0;strokeColor=#B3B3B3;entryX=0;entryY=0;entryDx=0;entryDy=0;" edge="1" parent="248" source="249" target="249">
                    <mxGeometry relative="1" as="geometry">
                        <mxPoint x="670" y="-20" as="sourcePoint"/>
                        <mxPoint x="190" y="220" as="targetPoint"/>
                    </mxGeometry>
                </mxCell>
                <mxCell id="252" value="Image" style="text;strokeColor=none;align=center;fillColor=none;html=1;verticalAlign=middle;whiteSpace=wrap;rounded=0;fontColor=#999999;" vertex="1" parent="248">
                    <mxGeometry x="10" y="65" width="60" height="10" as="geometry"/>
                </mxCell>
                <mxCell id="253" value="&lt;font style=&quot;font-size: 9px;&quot;&gt;Nom arbre&lt;/font&gt;&lt;div&gt;&lt;font style=&quot;font-size: 9px;&quot;&gt;Localisation&lt;/font&gt;&lt;/div&gt;" style="whiteSpace=wrap;html=1;fontSize=12;align=left;" vertex="1" parent="248">
                    <mxGeometry y="85" width="80" height="40" as="geometry"/>
                </mxCell>
                <mxCell id="254" value="" style="group" vertex="1" connectable="0" parent="1">
                    <mxGeometry x="650" y="-80" width="530" height="30" as="geometry"/>
                </mxCell>
                <mxCell id="255" value="Copyright" style="whiteSpace=wrap;html=1;fontSize=9;" vertex="1" parent="254">
                    <mxGeometry x="50" width="480" height="30" as="geometry"/>
                </mxCell>
                <mxCell id="256" value="Footer" style="text;strokeColor=none;align=center;fillColor=none;html=1;verticalAlign=middle;whiteSpace=wrap;rounded=0;fontSize=9;" vertex="1" parent="254">
                    <mxGeometry width="40" height="20" as="geometry"/>
                </mxCell>
                <mxCell id="257" value="Europe" style="text;strokeColor=none;align=left;fillColor=none;html=1;verticalAlign=middle;whiteSpace=wrap;rounded=0;fontSize=16;" vertex="1" parent="1">
                    <mxGeometry x="753" y="-620" width="210" height="20" as="geometry"/>
                </mxCell>
                <mxCell id="258" value="" style="group" vertex="1" connectable="0" parent="1">
                    <mxGeometry x="750" y="-584" width="80" height="125" as="geometry"/>
                </mxCell>
                <mxCell id="259" value="" style="whiteSpace=wrap;html=1;" vertex="1" parent="258">
                    <mxGeometry width="80" height="85" as="geometry"/>
                </mxCell>
                <mxCell id="260" style="edgeStyle=none;html=1;exitX=1;exitY=0;exitDx=0;exitDy=0;endArrow=none;endFill=0;strokeColor=#B3B3B3;entryX=0;entryY=1;entryDx=0;entryDy=0;" edge="1" parent="258" source="259" target="259">
                    <mxGeometry relative="1" as="geometry">
                        <mxPoint x="590" y="-99.99999999999994" as="sourcePoint"/>
                        <mxPoint x="590" y="29.230769230769283" as="targetPoint"/>
                    </mxGeometry>
                </mxCell>
                <mxCell id="261" style="edgeStyle=none;html=1;exitX=1;exitY=1;exitDx=0;exitDy=0;endArrow=none;endFill=0;strokeColor=#B3B3B3;entryX=0;entryY=0;entryDx=0;entryDy=0;" edge="1" parent="258" source="259" target="259">
                    <mxGeometry relative="1" as="geometry">
                        <mxPoint x="670" y="-20" as="sourcePoint"/>
                        <mxPoint x="190" y="220" as="targetPoint"/>
                    </mxGeometry>
                </mxCell>
                <mxCell id="262" value="Image" style="text;strokeColor=none;align=center;fillColor=none;html=1;verticalAlign=middle;whiteSpace=wrap;rounded=0;fontColor=#999999;" vertex="1" parent="258">
                    <mxGeometry x="10" y="65" width="60" height="10" as="geometry"/>
                </mxCell>
                <mxCell id="263" value="&lt;font style=&quot;font-size: 9px;&quot;&gt;Nom arbre&lt;/font&gt;&lt;div&gt;&lt;font style=&quot;font-size: 9px;&quot;&gt;Localisation&lt;/font&gt;&lt;/div&gt;" style="whiteSpace=wrap;html=1;fontSize=12;align=left;" vertex="1" parent="258">
                    <mxGeometry y="85" width="80" height="40" as="geometry"/>
                </mxCell>
                <mxCell id="264" value="" style="group" vertex="1" connectable="0" parent="1">
                    <mxGeometry x="900" y="-584" width="80" height="125" as="geometry"/>
                </mxCell>
                <mxCell id="265" value="" style="whiteSpace=wrap;html=1;" vertex="1" parent="264">
                    <mxGeometry width="80" height="85" as="geometry"/>
                </mxCell>
                <mxCell id="266" style="edgeStyle=none;html=1;exitX=1;exitY=0;exitDx=0;exitDy=0;endArrow=none;endFill=0;strokeColor=#B3B3B3;entryX=0;entryY=1;entryDx=0;entryDy=0;" edge="1" parent="264" source="265" target="265">
                    <mxGeometry relative="1" as="geometry">
                        <mxPoint x="590" y="-99.99999999999994" as="sourcePoint"/>
                        <mxPoint x="590" y="29.230769230769283" as="targetPoint"/>
                    </mxGeometry>
                </mxCell>
                <mxCell id="267" style="edgeStyle=none;html=1;exitX=1;exitY=1;exitDx=0;exitDy=0;endArrow=none;endFill=0;strokeColor=#B3B3B3;entryX=0;entryY=0;entryDx=0;entryDy=0;" edge="1" parent="264" source="265" target="265">
                    <mxGeometry relative="1" as="geometry">
                        <mxPoint x="670" y="-20" as="sourcePoint"/>
                        <mxPoint x="190" y="220" as="targetPoint"/>
                    </mxGeometry>
                </mxCell>
                <mxCell id="268" value="Image" style="text;strokeColor=none;align=center;fillColor=none;html=1;verticalAlign=middle;whiteSpace=wrap;rounded=0;fontColor=#999999;" vertex="1" parent="264">
                    <mxGeometry x="10" y="65" width="60" height="10" as="geometry"/>
                </mxCell>
                <mxCell id="269" value="&lt;font style=&quot;font-size: 9px;&quot;&gt;Nom arbre&lt;/font&gt;&lt;div&gt;&lt;font style=&quot;font-size: 9px;&quot;&gt;Localisation&lt;/font&gt;&lt;/div&gt;" style="whiteSpace=wrap;html=1;fontSize=12;align=left;" vertex="1" parent="264">
                    <mxGeometry y="85" width="80" height="40" as="geometry"/>
                </mxCell>
                <mxCell id="270" value="" style="group" vertex="1" connectable="0" parent="1">
                    <mxGeometry x="1050" y="-585" width="80" height="125" as="geometry"/>
                </mxCell>
                <mxCell id="271" value="" style="whiteSpace=wrap;html=1;" vertex="1" parent="270">
                    <mxGeometry width="80" height="85" as="geometry"/>
                </mxCell>
                <mxCell id="272" style="edgeStyle=none;html=1;exitX=1;exitY=0;exitDx=0;exitDy=0;endArrow=none;endFill=0;strokeColor=#B3B3B3;entryX=0;entryY=1;entryDx=0;entryDy=0;" edge="1" parent="270" source="271" target="271">
                    <mxGeometry relative="1" as="geometry">
                        <mxPoint x="590" y="-99.99999999999994" as="sourcePoint"/>
                        <mxPoint x="590" y="29.230769230769283" as="targetPoint"/>
                    </mxGeometry>
                </mxCell>
                <mxCell id="273" style="edgeStyle=none;html=1;exitX=1;exitY=1;exitDx=0;exitDy=0;endArrow=none;endFill=0;strokeColor=#B3B3B3;entryX=0;entryY=0;entryDx=0;entryDy=0;" edge="1" parent="270" source="271" target="271">
                    <mxGeometry relative="1" as="geometry">
                        <mxPoint x="670" y="-20" as="sourcePoint"/>
                        <mxPoint x="190" y="220" as="targetPoint"/>
                    </mxGeometry>
                </mxCell>
                <mxCell id="274" value="Image" style="text;strokeColor=none;align=center;fillColor=none;html=1;verticalAlign=middle;whiteSpace=wrap;rounded=0;fontColor=#999999;" vertex="1" parent="270">
                    <mxGeometry x="10" y="65" width="60" height="10" as="geometry"/>
                </mxCell>
                <mxCell id="275" value="&lt;font style=&quot;font-size: 9px;&quot;&gt;Nom arbre&lt;/font&gt;&lt;div&gt;&lt;font style=&quot;font-size: 9px;&quot;&gt;Localisation&lt;/font&gt;&lt;/div&gt;" style="whiteSpace=wrap;html=1;fontSize=12;align=left;" vertex="1" parent="270">
                    <mxGeometry y="85" width="80" height="40" as="geometry"/>
                </mxCell>
                <mxCell id="276" value="Monde" style="text;strokeColor=none;align=left;fillColor=none;html=1;verticalAlign=middle;whiteSpace=wrap;rounded=0;fontSize=16;" vertex="1" parent="1">
                    <mxGeometry x="753" y="-410" width="210" height="20" as="geometry"/>
                </mxCell>
                <mxCell id="277" value="" style="group" vertex="1" connectable="0" parent="1">
                    <mxGeometry x="750" y="-374" width="80" height="125" as="geometry"/>
                </mxCell>
                <mxCell id="278" value="" style="whiteSpace=wrap;html=1;" vertex="1" parent="277">
                    <mxGeometry width="80" height="85" as="geometry"/>
                </mxCell>
                <mxCell id="279" style="edgeStyle=none;html=1;exitX=1;exitY=0;exitDx=0;exitDy=0;endArrow=none;endFill=0;strokeColor=#B3B3B3;entryX=0;entryY=1;entryDx=0;entryDy=0;" edge="1" parent="277" source="278" target="278">
                    <mxGeometry relative="1" as="geometry">
                        <mxPoint x="590" y="-99.99999999999994" as="sourcePoint"/>
                        <mxPoint x="590" y="29.230769230769283" as="targetPoint"/>
                    </mxGeometry>
                </mxCell>
                <mxCell id="280" style="edgeStyle=none;html=1;exitX=1;exitY=1;exitDx=0;exitDy=0;endArrow=none;endFill=0;strokeColor=#B3B3B3;entryX=0;entryY=0;entryDx=0;entryDy=0;" edge="1" parent="277" source="278" target="278">
                    <mxGeometry relative="1" as="geometry">
                        <mxPoint x="670" y="-20" as="sourcePoint"/>
                        <mxPoint x="190" y="220" as="targetPoint"/>
                    </mxGeometry>
                </mxCell>
                <mxCell id="281" value="Image" style="text;strokeColor=none;align=center;fillColor=none;html=1;verticalAlign=middle;whiteSpace=wrap;rounded=0;fontColor=#999999;" vertex="1" parent="277">
                    <mxGeometry x="10" y="65" width="60" height="10" as="geometry"/>
                </mxCell>
                <mxCell id="282" value="&lt;font style=&quot;font-size: 9px;&quot;&gt;Nom arbre&lt;/font&gt;&lt;div&gt;&lt;font style=&quot;font-size: 9px;&quot;&gt;Localisation&lt;/font&gt;&lt;/div&gt;" style="whiteSpace=wrap;html=1;fontSize=12;align=left;" vertex="1" parent="277">
                    <mxGeometry y="85" width="80" height="40" as="geometry"/>
                </mxCell>
                <mxCell id="283" value="" style="group" vertex="1" connectable="0" parent="1">
                    <mxGeometry x="900" y="-374" width="80" height="125" as="geometry"/>
                </mxCell>
                <mxCell id="284" value="" style="whiteSpace=wrap;html=1;" vertex="1" parent="283">
                    <mxGeometry width="80" height="85" as="geometry"/>
                </mxCell>
                <mxCell id="285" style="edgeStyle=none;html=1;exitX=1;exitY=0;exitDx=0;exitDy=0;endArrow=none;endFill=0;strokeColor=#B3B3B3;entryX=0;entryY=1;entryDx=0;entryDy=0;" edge="1" parent="283" source="284" target="284">
                    <mxGeometry relative="1" as="geometry">
                        <mxPoint x="590" y="-99.99999999999994" as="sourcePoint"/>
                        <mxPoint x="590" y="29.230769230769283" as="targetPoint"/>
                    </mxGeometry>
                </mxCell>
                <mxCell id="286" style="edgeStyle=none;html=1;exitX=1;exitY=1;exitDx=0;exitDy=0;endArrow=none;endFill=0;strokeColor=#B3B3B3;entryX=0;entryY=0;entryDx=0;entryDy=0;" edge="1" parent="283" source="284" target="284">
                    <mxGeometry relative="1" as="geometry">
                        <mxPoint x="670" y="-20" as="sourcePoint"/>
                        <mxPoint x="190" y="220" as="targetPoint"/>
                    </mxGeometry>
                </mxCell>
                <mxCell id="287" value="Image" style="text;strokeColor=none;align=center;fillColor=none;html=1;verticalAlign=middle;whiteSpace=wrap;rounded=0;fontColor=#999999;" vertex="1" parent="283">
                    <mxGeometry x="10" y="65" width="60" height="10" as="geometry"/>
                </mxCell>
                <mxCell id="288" value="&lt;font style=&quot;font-size: 9px;&quot;&gt;Nom arbre&lt;/font&gt;&lt;div&gt;&lt;font style=&quot;font-size: 9px;&quot;&gt;Localisation&lt;/font&gt;&lt;/div&gt;" style="whiteSpace=wrap;html=1;fontSize=12;align=left;" vertex="1" parent="283">
                    <mxGeometry y="85" width="80" height="40" as="geometry"/>
                </mxCell>
                <mxCell id="289" value="" style="group" vertex="1" connectable="0" parent="1">
                    <mxGeometry x="1050" y="-375" width="80" height="125" as="geometry"/>
                </mxCell>
                <mxCell id="290" value="" style="whiteSpace=wrap;html=1;" vertex="1" parent="289">
                    <mxGeometry width="80" height="85" as="geometry"/>
                </mxCell>
                <mxCell id="291" style="edgeStyle=none;html=1;exitX=1;exitY=0;exitDx=0;exitDy=0;endArrow=none;endFill=0;strokeColor=#B3B3B3;entryX=0;entryY=1;entryDx=0;entryDy=0;" edge="1" parent="289" source="290" target="290">
                    <mxGeometry relative="1" as="geometry">
                        <mxPoint x="590" y="-99.99999999999994" as="sourcePoint"/>
                        <mxPoint x="590" y="29.230769230769283" as="targetPoint"/>
                    </mxGeometry>
                </mxCell>
                <mxCell id="292" style="edgeStyle=none;html=1;exitX=1;exitY=1;exitDx=0;exitDy=0;endArrow=none;endFill=0;strokeColor=#B3B3B3;entryX=0;entryY=0;entryDx=0;entryDy=0;" edge="1" parent="289" source="290" target="290">
                    <mxGeometry relative="1" as="geometry">
                        <mxPoint x="670" y="-20" as="sourcePoint"/>
                        <mxPoint x="190" y="220" as="targetPoint"/>
                    </mxGeometry>
                </mxCell>
                <mxCell id="293" value="Image" style="text;strokeColor=none;align=center;fillColor=none;html=1;verticalAlign=middle;whiteSpace=wrap;rounded=0;fontColor=#999999;" vertex="1" parent="289">
                    <mxGeometry x="10" y="65" width="60" height="10" as="geometry"/>
                </mxCell>
                <mxCell id="294" value="&lt;font style=&quot;font-size: 9px;&quot;&gt;Nom arbre&lt;/font&gt;&lt;div&gt;&lt;font style=&quot;font-size: 9px;&quot;&gt;Localisation&lt;/font&gt;&lt;/div&gt;" style="whiteSpace=wrap;html=1;fontSize=12;align=left;" vertex="1" parent="289">
                    <mxGeometry y="85" width="80" height="40" as="geometry"/>
                </mxCell>
                <mxCell id="295" value="" style="group" vertex="1" connectable="0" parent="1">
                    <mxGeometry x="1050" y="210" width="80" height="140" as="geometry"/>
                </mxCell>
                <mxCell id="296" value="" style="whiteSpace=wrap;html=1;" vertex="1" parent="295">
                    <mxGeometry width="80" height="85" as="geometry"/>
                </mxCell>
                <mxCell id="297" style="edgeStyle=none;html=1;exitX=1;exitY=0;exitDx=0;exitDy=0;endArrow=none;endFill=0;strokeColor=#B3B3B3;entryX=0;entryY=1;entryDx=0;entryDy=0;" edge="1" parent="295" source="296" target="296">
                    <mxGeometry relative="1" as="geometry">
                        <mxPoint x="590" y="-99.99999999999994" as="sourcePoint"/>
                        <mxPoint x="590" y="29.230769230769283" as="targetPoint"/>
                    </mxGeometry>
                </mxCell>
                <mxCell id="298" style="edgeStyle=none;html=1;exitX=1;exitY=1;exitDx=0;exitDy=0;endArrow=none;endFill=0;strokeColor=#B3B3B3;entryX=0;entryY=0;entryDx=0;entryDy=0;" edge="1" parent="295" source="296" target="296">
                    <mxGeometry relative="1" as="geometry">
                        <mxPoint x="670" y="-20" as="sourcePoint"/>
                        <mxPoint x="190" y="220" as="targetPoint"/>
                    </mxGeometry>
                </mxCell>
                <mxCell id="299" value="Image" style="text;strokeColor=none;align=center;fillColor=none;html=1;verticalAlign=middle;whiteSpace=wrap;rounded=0;fontColor=#999999;" vertex="1" parent="295">
                    <mxGeometry x="10" y="65" width="60" height="10" as="geometry"/>
                </mxCell>
                <mxCell id="300" value="&lt;font style=&quot;font-size: 9px;&quot;&gt;Nom arbre&lt;/font&gt;&lt;div&gt;&lt;font style=&quot;font-size: 9px;&quot;&gt;Localisation&lt;/font&gt;&lt;/div&gt;&lt;div&gt;&lt;font style=&quot;font-size: 9px;&quot;&gt;Prix&lt;/font&gt;&lt;/div&gt;" style="whiteSpace=wrap;html=1;fontSize=12;align=left;" vertex="1" parent="295">
                    <mxGeometry y="85" width="80" height="55" as="geometry"/>
                </mxCell>
                <mxCell id="301" value="" style="group" vertex="1" connectable="0" parent="1">
                    <mxGeometry x="900" y="210" width="80" height="140" as="geometry"/>
                </mxCell>
                <mxCell id="302" value="" style="whiteSpace=wrap;html=1;" vertex="1" parent="301">
                    <mxGeometry width="80" height="85" as="geometry"/>
                </mxCell>
                <mxCell id="303" style="edgeStyle=none;html=1;exitX=1;exitY=0;exitDx=0;exitDy=0;endArrow=none;endFill=0;strokeColor=#B3B3B3;entryX=0;entryY=1;entryDx=0;entryDy=0;" edge="1" parent="301" source="302" target="302">
                    <mxGeometry relative="1" as="geometry">
                        <mxPoint x="590" y="-99.99999999999994" as="sourcePoint"/>
                        <mxPoint x="590" y="29.230769230769283" as="targetPoint"/>
                    </mxGeometry>
                </mxCell>
                <mxCell id="304" style="edgeStyle=none;html=1;exitX=1;exitY=1;exitDx=0;exitDy=0;endArrow=none;endFill=0;strokeColor=#B3B3B3;entryX=0;entryY=0;entryDx=0;entryDy=0;" edge="1" parent="301" source="302" target="302">
                    <mxGeometry relative="1" as="geometry">
                        <mxPoint x="670" y="-20" as="sourcePoint"/>
                        <mxPoint x="190" y="220" as="targetPoint"/>
                    </mxGeometry>
                </mxCell>
                <mxCell id="305" value="Image" style="text;strokeColor=none;align=center;fillColor=none;html=1;verticalAlign=middle;whiteSpace=wrap;rounded=0;fontColor=#999999;" vertex="1" parent="301">
                    <mxGeometry x="10" y="65" width="60" height="10" as="geometry"/>
                </mxCell>
                <mxCell id="306" value="&lt;font style=&quot;font-size: 9px;&quot;&gt;Nom arbre&lt;/font&gt;&lt;div&gt;&lt;font style=&quot;font-size: 9px;&quot;&gt;Localisation&lt;/font&gt;&lt;/div&gt;&lt;div&gt;&lt;font style=&quot;font-size: 9px;&quot;&gt;Prix&lt;/font&gt;&lt;/div&gt;" style="whiteSpace=wrap;html=1;fontSize=12;align=left;" vertex="1" parent="301">
                    <mxGeometry y="85" width="80" height="55" as="geometry"/>
                </mxCell>
                <mxCell id="307" value="" style="group" vertex="1" connectable="0" parent="1">
                    <mxGeometry x="750" y="391" width="80" height="140" as="geometry"/>
                </mxCell>
                <mxCell id="308" value="" style="whiteSpace=wrap;html=1;" vertex="1" parent="307">
                    <mxGeometry width="80" height="85" as="geometry"/>
                </mxCell>
                <mxCell id="309" style="edgeStyle=none;html=1;exitX=1;exitY=0;exitDx=0;exitDy=0;endArrow=none;endFill=0;strokeColor=#B3B3B3;entryX=0;entryY=1;entryDx=0;entryDy=0;" edge="1" parent="307" source="308" target="308">
                    <mxGeometry relative="1" as="geometry">
                        <mxPoint x="590" y="-99.99999999999994" as="sourcePoint"/>
                        <mxPoint x="590" y="29.230769230769283" as="targetPoint"/>
                    </mxGeometry>
                </mxCell>
                <mxCell id="310" style="edgeStyle=none;html=1;exitX=1;exitY=1;exitDx=0;exitDy=0;endArrow=none;endFill=0;strokeColor=#B3B3B3;entryX=0;entryY=0;entryDx=0;entryDy=0;" edge="1" parent="307" source="308" target="308">
                    <mxGeometry relative="1" as="geometry">
                        <mxPoint x="670" y="-20" as="sourcePoint"/>
                        <mxPoint x="190" y="220" as="targetPoint"/>
                    </mxGeometry>
                </mxCell>
                <mxCell id="311" value="Image" style="text;strokeColor=none;align=center;fillColor=none;html=1;verticalAlign=middle;whiteSpace=wrap;rounded=0;fontColor=#999999;" vertex="1" parent="307">
                    <mxGeometry x="10" y="65" width="60" height="10" as="geometry"/>
                </mxCell>
                <mxCell id="312" value="&lt;font style=&quot;font-size: 9px;&quot;&gt;Nom arbre&lt;/font&gt;&lt;div&gt;&lt;font style=&quot;font-size: 9px;&quot;&gt;Localisation&lt;/font&gt;&lt;/div&gt;&lt;div&gt;&lt;font style=&quot;font-size: 9px;&quot;&gt;Prix&lt;/font&gt;&lt;/div&gt;" style="whiteSpace=wrap;html=1;fontSize=12;align=left;" vertex="1" parent="307">
                    <mxGeometry y="85" width="80" height="55" as="geometry"/>
                </mxCell>
                <mxCell id="313" value="" style="group" vertex="1" connectable="0" parent="1">
                    <mxGeometry x="1050" y="390" width="80" height="140" as="geometry"/>
                </mxCell>
                <mxCell id="314" value="" style="whiteSpace=wrap;html=1;" vertex="1" parent="313">
                    <mxGeometry width="80" height="85" as="geometry"/>
                </mxCell>
                <mxCell id="315" style="edgeStyle=none;html=1;exitX=1;exitY=0;exitDx=0;exitDy=0;endArrow=none;endFill=0;strokeColor=#B3B3B3;entryX=0;entryY=1;entryDx=0;entryDy=0;" edge="1" parent="313" source="314" target="314">
                    <mxGeometry relative="1" as="geometry">
                        <mxPoint x="590" y="-99.99999999999994" as="sourcePoint"/>
                        <mxPoint x="590" y="29.230769230769283" as="targetPoint"/>
                    </mxGeometry>
                </mxCell>
                <mxCell id="316" style="edgeStyle=none;html=1;exitX=1;exitY=1;exitDx=0;exitDy=0;endArrow=none;endFill=0;strokeColor=#B3B3B3;entryX=0;entryY=0;entryDx=0;entryDy=0;" edge="1" parent="313" source="314" target="314">
                    <mxGeometry relative="1" as="geometry">
                        <mxPoint x="670" y="-20" as="sourcePoint"/>
                        <mxPoint x="190" y="220" as="targetPoint"/>
                    </mxGeometry>
                </mxCell>
                <mxCell id="317" value="Image" style="text;strokeColor=none;align=center;fillColor=none;html=1;verticalAlign=middle;whiteSpace=wrap;rounded=0;fontColor=#999999;" vertex="1" parent="313">
                    <mxGeometry x="10" y="65" width="60" height="10" as="geometry"/>
                </mxCell>
                <mxCell id="318" value="&lt;font style=&quot;font-size: 9px;&quot;&gt;Nom arbre&lt;/font&gt;&lt;div&gt;&lt;font style=&quot;font-size: 9px;&quot;&gt;Localisation&lt;/font&gt;&lt;/div&gt;&lt;div&gt;&lt;font style=&quot;font-size: 9px;&quot;&gt;Prix&lt;/font&gt;&lt;/div&gt;" style="whiteSpace=wrap;html=1;fontSize=12;align=left;" vertex="1" parent="313">
                    <mxGeometry y="85" width="80" height="55" as="geometry"/>
                </mxCell>
                <mxCell id="319" value="" style="group" vertex="1" connectable="0" parent="1">
                    <mxGeometry x="900" y="390" width="80" height="140" as="geometry"/>
                </mxCell>
                <mxCell id="320" value="" style="whiteSpace=wrap;html=1;" vertex="1" parent="319">
                    <mxGeometry width="80" height="85" as="geometry"/>
                </mxCell>
                <mxCell id="321" style="edgeStyle=none;html=1;exitX=1;exitY=0;exitDx=0;exitDy=0;endArrow=none;endFill=0;strokeColor=#B3B3B3;entryX=0;entryY=1;entryDx=0;entryDy=0;" edge="1" parent="319" source="320" target="320">
                    <mxGeometry relative="1" as="geometry">
                        <mxPoint x="590" y="-99.99999999999994" as="sourcePoint"/>
                        <mxPoint x="590" y="29.230769230769283" as="targetPoint"/>
                    </mxGeometry>
                </mxCell>
                <mxCell id="322" style="edgeStyle=none;html=1;exitX=1;exitY=1;exitDx=0;exitDy=0;endArrow=none;endFill=0;strokeColor=#B3B3B3;entryX=0;entryY=0;entryDx=0;entryDy=0;" edge="1" parent="319" source="320" target="320">
                    <mxGeometry relative="1" as="geometry">
                        <mxPoint x="670" y="-20" as="sourcePoint"/>
                        <mxPoint x="190" y="220" as="targetPoint"/>
                    </mxGeometry>
                </mxCell>
                <mxCell id="323" value="Image" style="text;strokeColor=none;align=center;fillColor=none;html=1;verticalAlign=middle;whiteSpace=wrap;rounded=0;fontColor=#999999;" vertex="1" parent="319">
                    <mxGeometry x="10" y="65" width="60" height="10" as="geometry"/>
                </mxCell>
                <mxCell id="324" value="&lt;font style=&quot;font-size: 9px;&quot;&gt;Nom arbre&lt;/font&gt;&lt;div&gt;&lt;font style=&quot;font-size: 9px;&quot;&gt;Localisation&lt;/font&gt;&lt;/div&gt;&lt;div&gt;&lt;font style=&quot;font-size: 9px;&quot;&gt;Prix&lt;/font&gt;&lt;/div&gt;" style="whiteSpace=wrap;html=1;fontSize=12;align=left;" vertex="1" parent="319">
                    <mxGeometry y="85" width="80" height="55" as="geometry"/>
                </mxCell>
                <mxCell id="325" value="Page suivante" style="whiteSpace=wrap;html=1;fillColor=#eeeeee;strokeColor=#36393d;fontSize=9;" vertex="1" parent="1">
                    <mxGeometry x="1047" y="570" width="83" height="20" as="geometry"/>
                </mxCell>
                <mxCell id="326" value="" style="whiteSpace=wrap;html=1;" vertex="1" parent="1">
                    <mxGeometry x="1400" y="40" width="480" height="450" as="geometry"/>
                </mxCell>
                <mxCell id="327" value="Détail d&#39;un arbre" style="text;strokeColor=none;align=left;fillColor=none;html=1;verticalAlign=middle;whiteSpace=wrap;rounded=0;" vertex="1" parent="1">
                    <mxGeometry x="1400" y="20" width="120" height="10" as="geometry"/>
                </mxCell>
                <mxCell id="328" value="" style="whiteSpace=wrap;html=1;" vertex="1" parent="1">
                    <mxGeometry x="1400" y="40" width="480" height="30" as="geometry"/>
                </mxCell>
                <mxCell id="329" value="Header" style="text;strokeColor=none;align=center;fillColor=none;html=1;verticalAlign=middle;whiteSpace=wrap;rounded=0;fontSize=9;" vertex="1" parent="1">
                    <mxGeometry x="1350" y="45" width="40" height="20" as="geometry"/>
                </mxCell>
                <mxCell id="330" value="Logo" style="whiteSpace=wrap;html=1;fillColor=#eeeeee;strokeColor=#36393d;fontSize=9;" vertex="1" parent="1">
                    <mxGeometry x="1410" y="45" width="50" height="20" as="geometry"/>
                </mxCell>
                <mxCell id="331" value="nav" style="whiteSpace=wrap;html=1;" vertex="1" parent="1">
                    <mxGeometry x="1610" y="50" width="160" height="15" as="geometry"/>
                </mxCell>
                <mxCell id="332" value="Main" style="text;strokeColor=none;align=center;fillColor=none;html=1;verticalAlign=middle;whiteSpace=wrap;rounded=0;fontSize=9;" vertex="1" parent="1">
                    <mxGeometry x="1350" y="70" width="40" height="20" as="geometry"/>
                </mxCell>
                <mxCell id="333" value="Nom arbre" style="text;strokeColor=none;align=left;fillColor=none;html=1;verticalAlign=middle;whiteSpace=wrap;rounded=0;fontSize=16;" vertex="1" parent="1">
                    <mxGeometry x="1640" y="130" width="210" height="30" as="geometry"/>
                </mxCell>
                <mxCell id="341" value="" style="group" vertex="1" connectable="0" parent="1">
                    <mxGeometry x="1350" y="490" width="530" height="30" as="geometry"/>
                </mxCell>
                <mxCell id="342" value="Copyright" style="whiteSpace=wrap;html=1;fontSize=9;" vertex="1" parent="341">
                    <mxGeometry x="50" width="480" height="30" as="geometry"/>
                </mxCell>
                <mxCell id="343" value="Footer" style="text;strokeColor=none;align=center;fillColor=none;html=1;verticalAlign=middle;whiteSpace=wrap;rounded=0;fontSize=9;" vertex="1" parent="341">
                    <mxGeometry width="40" height="20" as="geometry"/>
                </mxCell>
                <mxCell id="375" value="cart" style="whiteSpace=wrap;html=1;" vertex="1" parent="1">
                    <mxGeometry x="470" y="50" width="40" height="15" as="geometry"/>
                </mxCell>
                <mxCell id="376" value="cart" style="whiteSpace=wrap;html=1;" vertex="1" parent="1">
                    <mxGeometry x="1130" y="50" width="40" height="15" as="geometry"/>
                </mxCell>
                <mxCell id="377" value="cart" style="whiteSpace=wrap;html=1;" vertex="1" parent="1">
                    <mxGeometry x="1830" y="50" width="40" height="15" as="geometry"/>
                </mxCell>
                <mxCell id="383" value="Région" style="text;strokeColor=none;align=left;fillColor=none;html=1;verticalAlign=middle;whiteSpace=wrap;rounded=0;fontSize=9;" vertex="1" parent="1">
                    <mxGeometry x="1640" y="170" width="210" height="10" as="geometry"/>
                </mxCell>
                <mxCell id="384" value="Description (historique de l&#39;espèce, hauteur, caractéristiques,...)" style="text;strokeColor=none;align=left;fillColor=none;html=1;verticalAlign=middle;whiteSpace=wrap;rounded=0;fontSize=9;" vertex="1" parent="1">
                    <mxGeometry x="1640" y="190" width="210" height="30" as="geometry"/>
                </mxCell>
                <mxCell id="385" value="Prix" style="text;strokeColor=none;align=left;fillColor=none;html=1;verticalAlign=middle;whiteSpace=wrap;rounded=0;fontSize=9;" vertex="1" parent="1">
                    <mxGeometry x="1642" y="230" width="36" height="10" as="geometry"/>
                </mxCell>
                <mxCell id="388" value="Ajouter au panier" style="whiteSpace=wrap;html=1;fillColor=#eeeeee;strokeColor=#36393d;fontSize=9;" vertex="1" parent="1">
                    <mxGeometry x="1644" y="251" width="83" height="20" as="geometry"/>
                </mxCell>
                <mxCell id="389" value="Titre projet" style="text;strokeColor=none;align=left;fillColor=none;html=1;verticalAlign=middle;whiteSpace=wrap;rounded=0;fontSize=16;" vertex="1" parent="1">
                    <mxGeometry x="1460" y="320" width="210" height="20" as="geometry"/>
                </mxCell>
                <mxCell id="390" value="" style="whiteSpace=wrap;html=1;" vertex="1" parent="1">
                    <mxGeometry x="1680" y="320" width="140" height="130" as="geometry"/>
                </mxCell>
                <mxCell id="391" style="edgeStyle=none;html=1;exitX=1;exitY=1;exitDx=0;exitDy=0;endArrow=none;endFill=0;strokeColor=#B3B3B3;entryX=0;entryY=0;entryDx=0;entryDy=0;" edge="1" parent="1" source="390" target="390">
                    <mxGeometry relative="1" as="geometry">
                        <mxPoint x="2350" y="300" as="sourcePoint"/>
                        <mxPoint x="1870" y="540" as="targetPoint"/>
                    </mxGeometry>
                </mxCell>
                <mxCell id="392" value="Image" style="text;strokeColor=none;align=center;fillColor=none;html=1;verticalAlign=middle;whiteSpace=wrap;rounded=0;fontColor=#999999;" vertex="1" parent="1">
                    <mxGeometry x="1720" y="431" width="60" height="10" as="geometry"/>
                </mxCell>
                <mxCell id="393" style="edgeStyle=none;html=1;exitX=1;exitY=0;exitDx=0;exitDy=0;endArrow=none;endFill=0;strokeColor=#B3B3B3;entryX=0;entryY=1;entryDx=0;entryDy=0;" edge="1" parent="1">
                    <mxGeometry relative="1" as="geometry">
                        <mxPoint x="1820" y="320" as="sourcePoint"/>
                        <mxPoint x="1680" y="450" as="targetPoint"/>
                    </mxGeometry>
                </mxCell>
                <mxCell id="394" value="Description du projet" style="text;strokeColor=none;align=left;fillColor=none;html=1;verticalAlign=middle;whiteSpace=wrap;rounded=0;fontSize=9;" vertex="1" parent="1">
                    <mxGeometry x="1460" y="350" width="210" height="100" as="geometry"/>
                </mxCell>
                <mxCell id="395" value="compte" style="whiteSpace=wrap;html=1;" vertex="1" parent="1">
                    <mxGeometry x="420" y="50" width="40" height="15" as="geometry"/>
                </mxCell>
                <mxCell id="397" value="compte" style="whiteSpace=wrap;html=1;" vertex="1" parent="1">
                    <mxGeometry x="1080" y="50" width="40" height="15" as="geometry"/>
                </mxCell>
                <mxCell id="398" value="compte" style="whiteSpace=wrap;html=1;" vertex="1" parent="1">
                    <mxGeometry x="1780" y="50" width="40" height="15" as="geometry"/>
                </mxCell>
                <mxCell id="426" value="" style="whiteSpace=wrap;html=1;" vertex="1" parent="1">
                    <mxGeometry x="2140" y="70" width="480" height="450" as="geometry"/>
                </mxCell>
                <mxCell id="427" value="Panier" style="text;strokeColor=none;align=left;fillColor=none;html=1;verticalAlign=middle;whiteSpace=wrap;rounded=0;" vertex="1" parent="1">
                    <mxGeometry x="2140" y="20" width="120" height="10" as="geometry"/>
                </mxCell>
                <mxCell id="428" value="" style="whiteSpace=wrap;html=1;" vertex="1" parent="1">
                    <mxGeometry x="2140" y="40" width="480" height="30" as="geometry"/>
                </mxCell>
                <mxCell id="429" value="Header" style="text;strokeColor=none;align=center;fillColor=none;html=1;verticalAlign=middle;whiteSpace=wrap;rounded=0;fontSize=9;" vertex="1" parent="1">
                    <mxGeometry x="2090" y="45" width="40" height="20" as="geometry"/>
                </mxCell>
                <mxCell id="430" value="Logo" style="whiteSpace=wrap;html=1;fillColor=#eeeeee;strokeColor=#36393d;fontSize=9;" vertex="1" parent="1">
                    <mxGeometry x="2150" y="45" width="50" height="20" as="geometry"/>
                </mxCell>
                <mxCell id="431" value="nav" style="whiteSpace=wrap;html=1;" vertex="1" parent="1">
                    <mxGeometry x="2350" y="50" width="160" height="15" as="geometry"/>
                </mxCell>
                <mxCell id="432" value="Main" style="text;strokeColor=none;align=center;fillColor=none;html=1;verticalAlign=middle;whiteSpace=wrap;rounded=0;fontSize=9;" vertex="1" parent="1">
                    <mxGeometry x="2090" y="70" width="40" height="20" as="geometry"/>
                </mxCell>
                <mxCell id="434" value="" style="group" vertex="1" connectable="0" parent="1">
                    <mxGeometry x="2090" y="490" width="530" height="30" as="geometry"/>
                </mxCell>
                <mxCell id="435" value="Copyright" style="whiteSpace=wrap;html=1;fontSize=9;" vertex="1" parent="434">
                    <mxGeometry x="50" width="480" height="30" as="geometry"/>
                </mxCell>
                <mxCell id="436" value="Footer" style="text;strokeColor=none;align=center;fillColor=none;html=1;verticalAlign=middle;whiteSpace=wrap;rounded=0;fontSize=9;" vertex="1" parent="434">
                    <mxGeometry width="40" height="20" as="geometry"/>
                </mxCell>
                <mxCell id="437" value="cart" style="whiteSpace=wrap;html=1;" vertex="1" parent="1">
                    <mxGeometry x="2570" y="50" width="40" height="15" as="geometry"/>
                </mxCell>
                <mxCell id="452" value="compte" style="whiteSpace=wrap;html=1;" vertex="1" parent="1">
                    <mxGeometry x="2520" y="50" width="40" height="15" as="geometry"/>
                </mxCell>
                <mxCell id="455" value="Nom arbre" style="text;strokeColor=none;align=left;fillColor=none;html=1;verticalAlign=middle;whiteSpace=wrap;rounded=0;fontSize=9;" vertex="1" parent="1">
                    <mxGeometry x="2280" y="190" width="50" height="20" as="geometry"/>
                </mxCell>
                <mxCell id="456" value="Panier" style="text;strokeColor=none;align=left;fillColor=none;html=1;verticalAlign=middle;whiteSpace=wrap;rounded=0;fontSize=16;" vertex="1" parent="1">
                    <mxGeometry x="2190" y="100" width="210" height="30" as="geometry"/>
                </mxCell>
                <mxCell id="458" value="" style="group" vertex="1" connectable="0" parent="1">
                    <mxGeometry x="2190" y="190" width="80" height="70" as="geometry"/>
                </mxCell>
                <mxCell id="438" value="" style="whiteSpace=wrap;html=1;" vertex="1" parent="458">
                    <mxGeometry width="80" height="70" as="geometry"/>
                </mxCell>
                <mxCell id="439" style="edgeStyle=none;html=1;exitX=1;exitY=0;exitDx=0;exitDy=0;endArrow=none;endFill=0;strokeColor=#B3B3B3;entryX=0;entryY=1;entryDx=0;entryDy=0;" edge="1" parent="458">
                    <mxGeometry relative="1" as="geometry">
                        <mxPoint x="80" as="sourcePoint"/>
                        <mxPoint y="70" as="targetPoint"/>
                    </mxGeometry>
                </mxCell>
                <mxCell id="440" style="edgeStyle=none;html=1;exitX=1;exitY=1;exitDx=0;exitDy=0;endArrow=none;endFill=0;strokeColor=#B3B3B3;entryX=0;entryY=0;entryDx=0;entryDy=0;" edge="1" parent="458">
                    <mxGeometry relative="1" as="geometry">
                        <mxPoint x="80" y="70" as="sourcePoint"/>
                        <mxPoint as="targetPoint"/>
                    </mxGeometry>
                </mxCell>
                <mxCell id="441" value="Image" style="text;strokeColor=none;align=center;fillColor=none;html=1;verticalAlign=middle;whiteSpace=wrap;rounded=0;fontColor=#999999;" vertex="1" parent="458">
                    <mxGeometry x="16" y="54.44444444444444" width="48" height="7.777777777777778" as="geometry"/>
                </mxCell>
                <mxCell id="459" value="Produit" style="text;strokeColor=none;align=left;fillColor=none;html=1;verticalAlign=middle;whiteSpace=wrap;rounded=0;fontSize=12;" vertex="1" parent="1">
                    <mxGeometry x="2190" y="150" width="210" height="20" as="geometry"/>
                </mxCell>
                <mxCell id="460" value="Quantité" style="text;strokeColor=none;align=left;fillColor=none;html=1;verticalAlign=middle;whiteSpace=wrap;rounded=0;fontSize=12;" vertex="1" parent="1">
                    <mxGeometry x="2380" y="150" width="70" height="20" as="geometry"/>
                </mxCell>
                <mxCell id="461" value="Prix" style="text;strokeColor=none;align=left;fillColor=none;html=1;verticalAlign=middle;whiteSpace=wrap;rounded=0;fontSize=12;" vertex="1" parent="1">
                    <mxGeometry x="2520" y="150" width="70" height="20" as="geometry"/>
                </mxCell>
                <mxCell id="462" value="- 1 +" style="text;strokeColor=none;align=left;fillColor=none;html=1;verticalAlign=middle;whiteSpace=wrap;rounded=0;fontSize=9;" vertex="1" parent="1">
                    <mxGeometry x="2380" y="190" width="40" height="20" as="geometry"/>
                </mxCell>
                <mxCell id="463" value="€ 100,00 EUR" style="text;strokeColor=none;align=left;fillColor=none;html=1;verticalAlign=middle;whiteSpace=wrap;rounded=0;fontSize=9;" vertex="1" parent="1">
                    <mxGeometry x="2520" y="190" width="60" height="20" as="geometry"/>
                </mxCell>
                <mxCell id="464" value="supp." style="whiteSpace=wrap;html=1;fillColor=#eeeeee;strokeColor=#36393d;fontSize=9;" vertex="1" parent="1">
                    <mxGeometry x="2420" y="190" width="40" height="20" as="geometry"/>
                </mxCell>
                <mxCell id="465" style="edgeStyle=none;html=1;exitX=1;exitY=1;exitDx=0;exitDy=0;endArrow=none;endFill=0;strokeColor=#B3B3B3;entryX=0;entryY=1;entryDx=0;entryDy=0;" edge="1" parent="1">
                    <mxGeometry relative="1" as="geometry">
                        <mxPoint x="2590" y="174.6" as="sourcePoint"/>
                        <mxPoint x="2190" y="174.6" as="targetPoint"/>
                    </mxGeometry>
                </mxCell>
                <mxCell id="466" value="Nom arbre" style="text;strokeColor=none;align=left;fillColor=none;html=1;verticalAlign=middle;whiteSpace=wrap;rounded=0;fontSize=9;" vertex="1" parent="1">
                    <mxGeometry x="2280" y="300" width="50" height="20" as="geometry"/>
                </mxCell>
                <mxCell id="467" value="" style="group" vertex="1" connectable="0" parent="1">
                    <mxGeometry x="2190" y="300" width="80" height="70" as="geometry"/>
                </mxCell>
                <mxCell id="468" value="" style="whiteSpace=wrap;html=1;" vertex="1" parent="467">
                    <mxGeometry width="80" height="70" as="geometry"/>
                </mxCell>
                <mxCell id="469" style="edgeStyle=none;html=1;exitX=1;exitY=0;exitDx=0;exitDy=0;endArrow=none;endFill=0;strokeColor=#B3B3B3;entryX=0;entryY=1;entryDx=0;entryDy=0;" edge="1" parent="467">
                    <mxGeometry relative="1" as="geometry">
                        <mxPoint x="80" as="sourcePoint"/>
                        <mxPoint y="70" as="targetPoint"/>
                    </mxGeometry>
                </mxCell>
                <mxCell id="470" style="edgeStyle=none;html=1;exitX=1;exitY=1;exitDx=0;exitDy=0;endArrow=none;endFill=0;strokeColor=#B3B3B3;entryX=0;entryY=0;entryDx=0;entryDy=0;" edge="1" parent="467">
                    <mxGeometry relative="1" as="geometry">
                        <mxPoint x="80" y="70" as="sourcePoint"/>
                        <mxPoint as="targetPoint"/>
                    </mxGeometry>
                </mxCell>
                <mxCell id="471" value="Image" style="text;strokeColor=none;align=center;fillColor=none;html=1;verticalAlign=middle;whiteSpace=wrap;rounded=0;fontColor=#999999;" vertex="1" parent="467">
                    <mxGeometry x="16" y="54.44444444444444" width="48" height="7.777777777777778" as="geometry"/>
                </mxCell>
                <mxCell id="472" value="- 1 +" style="text;strokeColor=none;align=left;fillColor=none;html=1;verticalAlign=middle;whiteSpace=wrap;rounded=0;fontSize=9;" vertex="1" parent="1">
                    <mxGeometry x="2380" y="300" width="40" height="20" as="geometry"/>
                </mxCell>
                <mxCell id="473" value="€ 150,00 EUR" style="text;strokeColor=none;align=left;fillColor=none;html=1;verticalAlign=middle;whiteSpace=wrap;rounded=0;fontSize=9;" vertex="1" parent="1">
                    <mxGeometry x="2520" y="300" width="60" height="20" as="geometry"/>
                </mxCell>
                <mxCell id="474" value="supp." style="whiteSpace=wrap;html=1;fillColor=#eeeeee;strokeColor=#36393d;fontSize=9;" vertex="1" parent="1">
                    <mxGeometry x="2420" y="300" width="40" height="20" as="geometry"/>
                </mxCell>
                <mxCell id="475" style="edgeStyle=none;html=1;exitX=1;exitY=1;exitDx=0;exitDy=0;endArrow=none;endFill=0;strokeColor=#B3B3B3;entryX=0;entryY=1;entryDx=0;entryDy=0;" edge="1" parent="1">
                    <mxGeometry relative="1" as="geometry">
                        <mxPoint x="2590" y="280.65999999999997" as="sourcePoint"/>
                        <mxPoint x="2190" y="280.65999999999997" as="targetPoint"/>
                    </mxGeometry>
                </mxCell>
                <mxCell id="476" style="edgeStyle=none;html=1;exitX=1;exitY=1;exitDx=0;exitDy=0;endArrow=none;endFill=0;strokeColor=#B3B3B3;entryX=0;entryY=1;entryDx=0;entryDy=0;" edge="1" parent="1">
                    <mxGeometry relative="1" as="geometry">
                        <mxPoint x="2590" y="394.65999999999997" as="sourcePoint"/>
                        <mxPoint x="2190" y="394.65999999999997" as="targetPoint"/>
                    </mxGeometry>
                </mxCell>
                <mxCell id="477" value="€ 250,00 EUR" style="text;strokeColor=none;align=left;fillColor=none;html=1;verticalAlign=middle;whiteSpace=wrap;rounded=0;fontSize=12;" vertex="1" parent="1">
                    <mxGeometry x="2500" y="410" width="85" height="20" as="geometry"/>
                </mxCell>
                <mxCell id="478" value="Valider le panier" style="whiteSpace=wrap;html=1;fillColor=#eeeeee;strokeColor=#36393d;fontSize=9;" vertex="1" parent="1">
                    <mxGeometry x="2502" y="441" width="83" height="20" as="geometry"/>
                </mxCell>
                <mxCell id="479" value="TOTAL" style="text;strokeColor=none;align=right;fillColor=none;html=1;verticalAlign=middle;whiteSpace=wrap;rounded=0;fontSize=12;" vertex="1" parent="1">
                    <mxGeometry x="2400" y="411" width="60" height="20" as="geometry"/>
                </mxCell>
                <mxCell id="481" value="Continuer mes achats" style="text;strokeColor=none;align=right;fillColor=none;html=1;verticalAlign=middle;whiteSpace=wrap;rounded=0;fontStyle=4;fontSize=9;" vertex="1" parent="1">
                    <mxGeometry x="2490" y="100" width="100" height="30" as="geometry"/>
                </mxCell>
                <mxCell id="483" value="" style="whiteSpace=wrap;html=1;" vertex="1" parent="1">
                    <mxGeometry x="690" y="960" width="480" height="580" as="geometry"/>
                </mxCell>
                <mxCell id="484" value="Admin" style="text;strokeColor=none;align=left;fillColor=none;html=1;verticalAlign=middle;whiteSpace=wrap;rounded=0;" vertex="1" parent="1">
                    <mxGeometry x="690" y="940" width="120" height="10" as="geometry"/>
                </mxCell>
                <mxCell id="485" value="" style="whiteSpace=wrap;html=1;" vertex="1" parent="1">
                    <mxGeometry x="690" y="960" width="480" height="30" as="geometry"/>
                </mxCell>
                <mxCell id="486" value="Header" style="text;strokeColor=none;align=center;fillColor=none;html=1;verticalAlign=middle;whiteSpace=wrap;rounded=0;fontSize=9;" vertex="1" parent="1">
                    <mxGeometry x="640" y="965" width="40" height="20" as="geometry"/>
                </mxCell>
                <mxCell id="487" value="Logo" style="whiteSpace=wrap;html=1;fillColor=#eeeeee;strokeColor=#36393d;fontSize=9;" vertex="1" parent="1">
                    <mxGeometry x="700" y="965" width="50" height="20" as="geometry"/>
                </mxCell>
                <mxCell id="488" value="nav" style="whiteSpace=wrap;html=1;" vertex="1" parent="1">
                    <mxGeometry x="900" y="970" width="160" height="15" as="geometry"/>
                </mxCell>
                <mxCell id="489" value="Main" style="text;strokeColor=none;align=center;fillColor=none;html=1;verticalAlign=middle;whiteSpace=wrap;rounded=0;fontSize=9;" vertex="1" parent="1">
                    <mxGeometry x="640" y="990" width="40" height="20" as="geometry"/>
                </mxCell>
                <mxCell id="490" value="Gestion GreenRoots" style="text;strokeColor=none;align=left;fillColor=none;html=1;verticalAlign=middle;whiteSpace=wrap;rounded=0;fontSize=20;" vertex="1" parent="1">
                    <mxGeometry x="740" y="1020" width="210" height="30" as="geometry"/>
                </mxCell>
                <mxCell id="491" value="filtres" style="whiteSpace=wrap;html=1;align=left;" vertex="1" parent="1">
                    <mxGeometry x="743" y="1090" width="377" height="15" as="geometry"/>
                </mxCell>
                <mxCell id="492" value="" style="group" vertex="1" connectable="0" parent="1">
                    <mxGeometry x="743" y="1125.5" width="80" height="160" as="geometry"/>
                </mxCell>
                <mxCell id="547" value="" style="group" vertex="1" connectable="0" parent="492">
                    <mxGeometry width="80" height="160" as="geometry"/>
                </mxCell>
                <mxCell id="493" value="" style="whiteSpace=wrap;html=1;" vertex="1" parent="547">
                    <mxGeometry width="80" height="85" as="geometry"/>
                </mxCell>
                <mxCell id="494" style="edgeStyle=none;html=1;exitX=1;exitY=0;exitDx=0;exitDy=0;endArrow=none;endFill=0;strokeColor=#B3B3B3;entryX=0;entryY=1;entryDx=0;entryDy=0;" edge="1" parent="547" source="493" target="493">
                    <mxGeometry relative="1" as="geometry">
                        <mxPoint x="590" y="-99.99999999999994" as="sourcePoint"/>
                        <mxPoint x="590" y="29.230769230769283" as="targetPoint"/>
                    </mxGeometry>
                </mxCell>
                <mxCell id="495" style="edgeStyle=none;html=1;exitX=1;exitY=1;exitDx=0;exitDy=0;endArrow=none;endFill=0;strokeColor=#B3B3B3;entryX=0;entryY=0;entryDx=0;entryDy=0;" edge="1" parent="547" source="493" target="493">
                    <mxGeometry relative="1" as="geometry">
                        <mxPoint x="670" y="-20" as="sourcePoint"/>
                        <mxPoint x="190" y="220" as="targetPoint"/>
                    </mxGeometry>
                </mxCell>
                <mxCell id="496" value="Image" style="text;strokeColor=none;align=center;fillColor=none;html=1;verticalAlign=middle;whiteSpace=wrap;rounded=0;fontColor=#999999;" vertex="1" parent="547">
                    <mxGeometry x="10" y="65" width="60" height="10" as="geometry"/>
                </mxCell>
                <mxCell id="497" value="&lt;font style=&quot;font-size: 9px;&quot;&gt;Nom arbre&lt;/font&gt;&lt;div&gt;&lt;font style=&quot;font-size: 9px;&quot;&gt;Localisation&lt;/font&gt;&lt;/div&gt;&lt;div&gt;&lt;font style=&quot;font-size: 9px;&quot;&gt;Prix&lt;/font&gt;&lt;/div&gt;" style="whiteSpace=wrap;html=1;fontSize=12;align=left;verticalAlign=top;" vertex="1" parent="547">
                    <mxGeometry y="85" width="80" height="75" as="geometry"/>
                </mxCell>
                <mxCell id="536" value="edit" style="whiteSpace=wrap;html=1;fontSize=9;" vertex="1" parent="547">
                    <mxGeometry x="10" y="144.5" width="20" height="11" as="geometry"/>
                </mxCell>
                <mxCell id="545" value="supp" style="whiteSpace=wrap;html=1;fontSize=9;" vertex="1" parent="547">
                    <mxGeometry x="50" y="144.5" width="20" height="11" as="geometry"/>
                </mxCell>
                <mxCell id="498" value="" style="group" vertex="1" connectable="0" parent="1">
                    <mxGeometry x="640" y="1540" width="530" height="30" as="geometry"/>
                </mxCell>
                <mxCell id="499" value="Copyright" style="whiteSpace=wrap;html=1;fontSize=9;" vertex="1" parent="498">
                    <mxGeometry x="50" width="480" height="30" as="geometry"/>
                </mxCell>
                <mxCell id="500" value="Footer" style="text;strokeColor=none;align=center;fillColor=none;html=1;verticalAlign=middle;whiteSpace=wrap;rounded=0;fontSize=9;" vertex="1" parent="498">
                    <mxGeometry width="40" height="20" as="geometry"/>
                </mxCell>
                <mxCell id="531" value="Page suivante" style="whiteSpace=wrap;html=1;fillColor=#eeeeee;strokeColor=#36393d;fontSize=9;" vertex="1" parent="1">
                    <mxGeometry x="1037" y="1490" width="83" height="20" as="geometry"/>
                </mxCell>
                <mxCell id="532" value="cart" style="whiteSpace=wrap;html=1;" vertex="1" parent="1">
                    <mxGeometry x="1120" y="970" width="40" height="15" as="geometry"/>
                </mxCell>
                <mxCell id="533" value="compte" style="whiteSpace=wrap;html=1;" vertex="1" parent="1">
                    <mxGeometry x="1070" y="970" width="40" height="15" as="geometry"/>
                </mxCell>
                <mxCell id="534" value="Ajouter un arbre" style="whiteSpace=wrap;html=1;fillColor=#eeeeee;strokeColor=#36393d;fontSize=9;" vertex="1" parent="1">
                    <mxGeometry x="833" y="1060" width="80" height="20" as="geometry"/>
                </mxCell>
                <mxCell id="535" value="Créer un projet" style="whiteSpace=wrap;html=1;fillColor=#eeeeee;strokeColor=#36393d;fontSize=9;" vertex="1" parent="1">
                    <mxGeometry x="743" y="1060" width="80" height="20" as="geometry"/>
                </mxCell>
                <mxCell id="548" value="" style="group" vertex="1" connectable="0" parent="1">
                    <mxGeometry x="891.5" y="1130" width="80" height="160" as="geometry"/>
                </mxCell>
                <mxCell id="549" value="" style="whiteSpace=wrap;html=1;" vertex="1" parent="548">
                    <mxGeometry width="80" height="85" as="geometry"/>
                </mxCell>
                <mxCell id="550" style="edgeStyle=none;html=1;exitX=1;exitY=0;exitDx=0;exitDy=0;endArrow=none;endFill=0;strokeColor=#B3B3B3;entryX=0;entryY=1;entryDx=0;entryDy=0;" edge="1" parent="548" source="549" target="549">
                    <mxGeometry relative="1" as="geometry">
                        <mxPoint x="590" y="-99.99999999999994" as="sourcePoint"/>
                        <mxPoint x="590" y="29.230769230769283" as="targetPoint"/>
                    </mxGeometry>
                </mxCell>
                <mxCell id="551" style="edgeStyle=none;html=1;exitX=1;exitY=1;exitDx=0;exitDy=0;endArrow=none;endFill=0;strokeColor=#B3B3B3;entryX=0;entryY=0;entryDx=0;entryDy=0;" edge="1" parent="548" source="549" target="549">
                    <mxGeometry relative="1" as="geometry">
                        <mxPoint x="670" y="-20" as="sourcePoint"/>
                        <mxPoint x="190" y="220" as="targetPoint"/>
                    </mxGeometry>
                </mxCell>
                <mxCell id="552" value="Image" style="text;strokeColor=none;align=center;fillColor=none;html=1;verticalAlign=middle;whiteSpace=wrap;rounded=0;fontColor=#999999;" vertex="1" parent="548">
                    <mxGeometry x="10" y="65" width="60" height="10" as="geometry"/>
                </mxCell>
                <mxCell id="553" value="&lt;font style=&quot;font-size: 9px;&quot;&gt;Nom arbre&lt;/font&gt;&lt;div&gt;&lt;font style=&quot;font-size: 9px;&quot;&gt;Localisation&lt;/font&gt;&lt;/div&gt;&lt;div&gt;&lt;font style=&quot;font-size: 9px;&quot;&gt;Prix&lt;/font&gt;&lt;/div&gt;" style="whiteSpace=wrap;html=1;fontSize=12;align=left;verticalAlign=top;" vertex="1" parent="548">
                    <mxGeometry y="85" width="80" height="75" as="geometry"/>
                </mxCell>
                <mxCell id="554" value="edit" style="whiteSpace=wrap;html=1;fontSize=9;" vertex="1" parent="548">
                    <mxGeometry x="10" y="144.5" width="20" height="11" as="geometry"/>
                </mxCell>
                <mxCell id="555" value="supp" style="whiteSpace=wrap;html=1;fontSize=9;" vertex="1" parent="548">
                    <mxGeometry x="50" y="144.5" width="20" height="11" as="geometry"/>
                </mxCell>
                <mxCell id="556" value="" style="group" vertex="1" connectable="0" parent="1">
                    <mxGeometry x="1040" y="1130" width="80" height="160" as="geometry"/>
                </mxCell>
                <mxCell id="557" value="" style="whiteSpace=wrap;html=1;" vertex="1" parent="556">
                    <mxGeometry width="80" height="85" as="geometry"/>
                </mxCell>
                <mxCell id="558" style="edgeStyle=none;html=1;exitX=1;exitY=0;exitDx=0;exitDy=0;endArrow=none;endFill=0;strokeColor=#B3B3B3;entryX=0;entryY=1;entryDx=0;entryDy=0;" edge="1" parent="556" source="557" target="557">
                    <mxGeometry relative="1" as="geometry">
                        <mxPoint x="590" y="-99.99999999999994" as="sourcePoint"/>
                        <mxPoint x="590" y="29.230769230769283" as="targetPoint"/>
                    </mxGeometry>
                </mxCell>
                <mxCell id="559" style="edgeStyle=none;html=1;exitX=1;exitY=1;exitDx=0;exitDy=0;endArrow=none;endFill=0;strokeColor=#B3B3B3;entryX=0;entryY=0;entryDx=0;entryDy=0;" edge="1" parent="556" source="557" target="557">
                    <mxGeometry relative="1" as="geometry">
                        <mxPoint x="670" y="-20" as="sourcePoint"/>
                        <mxPoint x="190" y="220" as="targetPoint"/>
                    </mxGeometry>
                </mxCell>
                <mxCell id="560" value="Image" style="text;strokeColor=none;align=center;fillColor=none;html=1;verticalAlign=middle;whiteSpace=wrap;rounded=0;fontColor=#999999;" vertex="1" parent="556">
                    <mxGeometry x="10" y="65" width="60" height="10" as="geometry"/>
                </mxCell>
                <mxCell id="561" value="&lt;font style=&quot;font-size: 9px;&quot;&gt;Nom arbre&lt;/font&gt;&lt;div&gt;&lt;font style=&quot;font-size: 9px;&quot;&gt;Localisation&lt;/font&gt;&lt;/div&gt;&lt;div&gt;&lt;font style=&quot;font-size: 9px;&quot;&gt;Prix&lt;/font&gt;&lt;/div&gt;" style="whiteSpace=wrap;html=1;fontSize=12;align=left;verticalAlign=top;" vertex="1" parent="556">
                    <mxGeometry y="85" width="80" height="75" as="geometry"/>
                </mxCell>
                <mxCell id="562" value="edit" style="whiteSpace=wrap;html=1;fontSize=9;" vertex="1" parent="556">
                    <mxGeometry x="10" y="144.5" width="20" height="11" as="geometry"/>
                </mxCell>
                <mxCell id="563" value="supp" style="whiteSpace=wrap;html=1;fontSize=9;" vertex="1" parent="556">
                    <mxGeometry x="50" y="144.5" width="20" height="11" as="geometry"/>
                </mxCell>
                <mxCell id="564" value="" style="group" vertex="1" connectable="0" parent="1">
                    <mxGeometry x="743" y="1309" width="80" height="160" as="geometry"/>
                </mxCell>
                <mxCell id="565" value="" style="group" vertex="1" connectable="0" parent="564">
                    <mxGeometry width="80" height="160" as="geometry"/>
                </mxCell>
                <mxCell id="566" value="" style="whiteSpace=wrap;html=1;" vertex="1" parent="565">
                    <mxGeometry width="80" height="85" as="geometry"/>
                </mxCell>
                <mxCell id="567" style="edgeStyle=none;html=1;exitX=1;exitY=0;exitDx=0;exitDy=0;endArrow=none;endFill=0;strokeColor=#B3B3B3;entryX=0;entryY=1;entryDx=0;entryDy=0;" edge="1" parent="565" source="566" target="566">
                    <mxGeometry relative="1" as="geometry">
                        <mxPoint x="590" y="-99.99999999999994" as="sourcePoint"/>
                        <mxPoint x="590" y="29.230769230769283" as="targetPoint"/>
                    </mxGeometry>
                </mxCell>
                <mxCell id="568" style="edgeStyle=none;html=1;exitX=1;exitY=1;exitDx=0;exitDy=0;endArrow=none;endFill=0;strokeColor=#B3B3B3;entryX=0;entryY=0;entryDx=0;entryDy=0;" edge="1" parent="565" source="566" target="566">
                    <mxGeometry relative="1" as="geometry">
                        <mxPoint x="670" y="-20" as="sourcePoint"/>
                        <mxPoint x="190" y="220" as="targetPoint"/>
                    </mxGeometry>
                </mxCell>
                <mxCell id="569" value="Image" style="text;strokeColor=none;align=center;fillColor=none;html=1;verticalAlign=middle;whiteSpace=wrap;rounded=0;fontColor=#999999;" vertex="1" parent="565">
                    <mxGeometry x="10" y="65" width="60" height="10" as="geometry"/>
                </mxCell>
                <mxCell id="570" value="&lt;font style=&quot;font-size: 9px;&quot;&gt;Nom arbre&lt;/font&gt;&lt;div&gt;&lt;font style=&quot;font-size: 9px;&quot;&gt;Localisation&lt;/font&gt;&lt;/div&gt;&lt;div&gt;&lt;font style=&quot;font-size: 9px;&quot;&gt;Prix&lt;/font&gt;&lt;/div&gt;" style="whiteSpace=wrap;html=1;fontSize=12;align=left;verticalAlign=top;" vertex="1" parent="565">
                    <mxGeometry y="85" width="80" height="75" as="geometry"/>
                </mxCell>
                <mxCell id="571" value="edit" style="whiteSpace=wrap;html=1;fontSize=9;" vertex="1" parent="565">
                    <mxGeometry x="10" y="144.5" width="20" height="11" as="geometry"/>
                </mxCell>
                <mxCell id="572" value="supp" style="whiteSpace=wrap;html=1;fontSize=9;" vertex="1" parent="565">
                    <mxGeometry x="50" y="144.5" width="20" height="11" as="geometry"/>
                </mxCell>
                <mxCell id="573" value="" style="group" vertex="1" connectable="0" parent="1">
                    <mxGeometry x="891.5" y="1313.5" width="80" height="160" as="geometry"/>
                </mxCell>
                <mxCell id="574" value="" style="whiteSpace=wrap;html=1;" vertex="1" parent="573">
                    <mxGeometry width="80" height="85" as="geometry"/>
                </mxCell>
                <mxCell id="575" style="edgeStyle=none;html=1;exitX=1;exitY=0;exitDx=0;exitDy=0;endArrow=none;endFill=0;strokeColor=#B3B3B3;entryX=0;entryY=1;entryDx=0;entryDy=0;" edge="1" parent="573" source="574" target="574">
                    <mxGeometry relative="1" as="geometry">
                        <mxPoint x="590" y="-99.99999999999994" as="sourcePoint"/>
                        <mxPoint x="590" y="29.230769230769283" as="targetPoint"/>
                    </mxGeometry>
                </mxCell>
                <mxCell id="576" style="edgeStyle=none;html=1;exitX=1;exitY=1;exitDx=0;exitDy=0;endArrow=none;endFill=0;strokeColor=#B3B3B3;entryX=0;entryY=0;entryDx=0;entryDy=0;" edge="1" parent="573" source="574" target="574">
                    <mxGeometry relative="1" as="geometry">
                        <mxPoint x="670" y="-20" as="sourcePoint"/>
                        <mxPoint x="190" y="220" as="targetPoint"/>
                    </mxGeometry>
                </mxCell>
                <mxCell id="577" value="Image" style="text;strokeColor=none;align=center;fillColor=none;html=1;verticalAlign=middle;whiteSpace=wrap;rounded=0;fontColor=#999999;" vertex="1" parent="573">
                    <mxGeometry x="10" y="65" width="60" height="10" as="geometry"/>
                </mxCell>
                <mxCell id="578" value="&lt;font style=&quot;font-size: 9px;&quot;&gt;Nom arbre&lt;/font&gt;&lt;div&gt;&lt;font style=&quot;font-size: 9px;&quot;&gt;Localisation&lt;/font&gt;&lt;/div&gt;&lt;div&gt;&lt;font style=&quot;font-size: 9px;&quot;&gt;Prix&lt;/font&gt;&lt;/div&gt;" style="whiteSpace=wrap;html=1;fontSize=12;align=left;verticalAlign=top;" vertex="1" parent="573">
                    <mxGeometry y="85" width="80" height="75" as="geometry"/>
                </mxCell>
                <mxCell id="579" value="edit" style="whiteSpace=wrap;html=1;fontSize=9;" vertex="1" parent="573">
                    <mxGeometry x="10" y="144.5" width="20" height="11" as="geometry"/>
                </mxCell>
                <mxCell id="580" value="supp" style="whiteSpace=wrap;html=1;fontSize=9;" vertex="1" parent="573">
                    <mxGeometry x="50" y="144.5" width="20" height="11" as="geometry"/>
                </mxCell>
                <mxCell id="581" value="" style="group" vertex="1" connectable="0" parent="1">
                    <mxGeometry x="1040" y="1313.5" width="80" height="160" as="geometry"/>
                </mxCell>
                <mxCell id="582" value="" style="whiteSpace=wrap;html=1;" vertex="1" parent="581">
                    <mxGeometry width="80" height="85" as="geometry"/>
                </mxCell>
                <mxCell id="583" style="edgeStyle=none;html=1;exitX=1;exitY=0;exitDx=0;exitDy=0;endArrow=none;endFill=0;strokeColor=#B3B3B3;entryX=0;entryY=1;entryDx=0;entryDy=0;" edge="1" parent="581" source="582" target="582">
                    <mxGeometry relative="1" as="geometry">
                        <mxPoint x="590" y="-99.99999999999994" as="sourcePoint"/>
                        <mxPoint x="590" y="29.230769230769283" as="targetPoint"/>
                    </mxGeometry>
                </mxCell>
                <mxCell id="584" style="edgeStyle=none;html=1;exitX=1;exitY=1;exitDx=0;exitDy=0;endArrow=none;endFill=0;strokeColor=#B3B3B3;entryX=0;entryY=0;entryDx=0;entryDy=0;" edge="1" parent="581" source="582" target="582">
                    <mxGeometry relative="1" as="geometry">
                        <mxPoint x="670" y="-20" as="sourcePoint"/>
                        <mxPoint x="190" y="220" as="targetPoint"/>
                    </mxGeometry>
                </mxCell>
                <mxCell id="585" value="Image" style="text;strokeColor=none;align=center;fillColor=none;html=1;verticalAlign=middle;whiteSpace=wrap;rounded=0;fontColor=#999999;" vertex="1" parent="581">
                    <mxGeometry x="10" y="65" width="60" height="10" as="geometry"/>
                </mxCell>
                <mxCell id="586" value="&lt;font style=&quot;font-size: 9px;&quot;&gt;Nom arbre&lt;/font&gt;&lt;div&gt;&lt;font style=&quot;font-size: 9px;&quot;&gt;Localisation&lt;/font&gt;&lt;/div&gt;&lt;div&gt;&lt;font style=&quot;font-size: 9px;&quot;&gt;Prix&lt;/font&gt;&lt;/div&gt;" style="whiteSpace=wrap;html=1;fontSize=12;align=left;verticalAlign=top;" vertex="1" parent="581">
                    <mxGeometry y="85" width="80" height="75" as="geometry"/>
                </mxCell>
                <mxCell id="587" value="edit" style="whiteSpace=wrap;html=1;fontSize=9;" vertex="1" parent="581">
                    <mxGeometry x="10" y="144.5" width="20" height="11" as="geometry"/>
                </mxCell>
                <mxCell id="588" value="supp" style="whiteSpace=wrap;html=1;fontSize=9;" vertex="1" parent="581">
                    <mxGeometry x="50" y="144.5" width="20" height="11" as="geometry"/>
                </mxCell>
                <mxCell id="589" value="" style="whiteSpace=wrap;html=1;" vertex="1" parent="1">
                    <mxGeometry x="1440" y="960" width="480" height="580" as="geometry"/>
                </mxCell>
                <mxCell id="590" value="Admin - ajouter / modifier un arbre" style="text;strokeColor=none;align=left;fillColor=none;html=1;verticalAlign=middle;whiteSpace=wrap;rounded=0;" vertex="1" parent="1">
                    <mxGeometry x="1440" y="940" width="200" height="10" as="geometry"/>
                </mxCell>
                <mxCell id="591" value="" style="whiteSpace=wrap;html=1;" vertex="1" parent="1">
                    <mxGeometry x="1440" y="960" width="480" height="30" as="geometry"/>
                </mxCell>
                <mxCell id="592" value="Header" style="text;strokeColor=none;align=center;fillColor=none;html=1;verticalAlign=middle;whiteSpace=wrap;rounded=0;fontSize=9;" vertex="1" parent="1">
                    <mxGeometry x="1390" y="965" width="40" height="20" as="geometry"/>
                </mxCell>
                <mxCell id="593" value="Logo" style="whiteSpace=wrap;html=1;fillColor=#eeeeee;strokeColor=#36393d;fontSize=9;" vertex="1" parent="1">
                    <mxGeometry x="1450" y="965" width="50" height="20" as="geometry"/>
                </mxCell>
                <mxCell id="594" value="nav" style="whiteSpace=wrap;html=1;" vertex="1" parent="1">
                    <mxGeometry x="1650" y="970" width="160" height="15" as="geometry"/>
                </mxCell>
                <mxCell id="595" value="Main" style="text;strokeColor=none;align=center;fillColor=none;html=1;verticalAlign=middle;whiteSpace=wrap;rounded=0;fontSize=9;" vertex="1" parent="1">
                    <mxGeometry x="1390" y="990" width="40" height="20" as="geometry"/>
                </mxCell>
                <mxCell id="596" value="Ajouter / modifier un arbre" style="text;strokeColor=none;align=left;fillColor=none;html=1;verticalAlign=middle;whiteSpace=wrap;rounded=0;fontSize=20;" vertex="1" parent="1">
                    <mxGeometry x="1490" y="1020" width="390" height="30" as="geometry"/>
                </mxCell>
                <mxCell id="607" value="" style="group" vertex="1" connectable="0" parent="1">
                    <mxGeometry x="1390" y="1540" width="530" height="30" as="geometry"/>
                </mxCell>
                <mxCell id="608" value="Copyright" style="whiteSpace=wrap;html=1;fontSize=9;" vertex="1" parent="607">
                    <mxGeometry x="50" width="480" height="30" as="geometry"/>
                </mxCell>
                <mxCell id="609" value="Footer" style="text;strokeColor=none;align=center;fillColor=none;html=1;verticalAlign=middle;whiteSpace=wrap;rounded=0;fontSize=9;" vertex="1" parent="607">
                    <mxGeometry width="40" height="20" as="geometry"/>
                </mxCell>
                <mxCell id="611" value="cart" style="whiteSpace=wrap;html=1;" vertex="1" parent="1">
                    <mxGeometry x="1870" y="970" width="40" height="15" as="geometry"/>
                </mxCell>
                <mxCell id="612" value="compte" style="whiteSpace=wrap;html=1;" vertex="1" parent="1">
                    <mxGeometry x="1820" y="970" width="40" height="15" as="geometry"/>
                </mxCell>
                <mxCell id="599" value="" style="group;rotation=90;" vertex="1" connectable="0" parent="1">
                    <mxGeometry x="1490" y="1080" width="131.76" height="160" as="geometry"/>
                </mxCell>
                <mxCell id="600" value="" style="whiteSpace=wrap;html=1;" vertex="1" parent="599">
                    <mxGeometry width="131.76" height="140" as="geometry"/>
                </mxCell>
                <mxCell id="601" style="edgeStyle=none;html=1;exitX=1;exitY=0;exitDx=0;exitDy=0;endArrow=none;endFill=0;strokeColor=#B3B3B3;entryX=0;entryY=1;entryDx=0;entryDy=0;" edge="1" parent="599" source="600" target="600">
                    <mxGeometry relative="1" as="geometry">
                        <mxPoint x="590" y="-99.99999999999994" as="sourcePoint"/>
                        <mxPoint x="590" y="29.230769230769283" as="targetPoint"/>
                    </mxGeometry>
                </mxCell>
                <mxCell id="602" style="edgeStyle=none;html=1;exitX=1;exitY=1;exitDx=0;exitDy=0;endArrow=none;endFill=0;strokeColor=#B3B3B3;entryX=0;entryY=0;entryDx=0;entryDy=0;" edge="1" parent="599" source="600" target="600">
                    <mxGeometry relative="1" as="geometry">
                        <mxPoint x="670" y="-20" as="sourcePoint"/>
                        <mxPoint x="190" y="220" as="targetPoint"/>
                    </mxGeometry>
                </mxCell>
                <mxCell id="603" value="Image" style="text;strokeColor=none;align=center;fillColor=none;html=1;verticalAlign=middle;whiteSpace=wrap;rounded=0;fontColor=#999999;" vertex="1" parent="599">
                    <mxGeometry x="35.879999999999995" y="120" width="60" height="10" as="geometry"/>
                </mxCell>
                <mxCell id="656" value="Choisir une image..." style="whiteSpace=wrap;html=1;fillColor=#eeeeee;strokeColor=#36393d;fontSize=9;" vertex="1" parent="599">
                    <mxGeometry x="25.88" y="60" width="84.12" height="20" as="geometry"/>
                </mxCell>
                <mxCell id="657" value="Nom arbre" style="text;strokeColor=none;align=left;fillColor=none;html=1;verticalAlign=middle;whiteSpace=wrap;rounded=0;fontSize=9;" vertex="1" parent="1">
                    <mxGeometry x="1680" y="1080" width="50" height="20" as="geometry"/>
                </mxCell>
                <mxCell id="658" value="" style="whiteSpace=wrap;html=1;" vertex="1" parent="1">
                    <mxGeometry x="1680" y="1100" width="200" height="20" as="geometry"/>
                </mxCell>
                <mxCell id="660" value="Sélectionner une région" style="whiteSpace=wrap;html=1;align=left;fontSize=9;" vertex="1" parent="1">
                    <mxGeometry x="1680" y="1140" width="200" height="20" as="geometry"/>
                </mxCell>
                <mxCell id="661" value="Sélectionner un projet" style="whiteSpace=wrap;html=1;align=left;fontSize=9;" vertex="1" parent="1">
                    <mxGeometry x="1680" y="1180" width="200" height="20" as="geometry"/>
                </mxCell>
                <mxCell id="662" value="Prix" style="text;strokeColor=none;align=left;fillColor=none;html=1;verticalAlign=middle;whiteSpace=wrap;rounded=0;fontSize=9;" vertex="1" parent="1">
                    <mxGeometry x="1680" y="1200" width="50" height="20" as="geometry"/>
                </mxCell>
                <mxCell id="663" value="" style="whiteSpace=wrap;html=1;" vertex="1" parent="1">
                    <mxGeometry x="1680" y="1220" width="200" height="20" as="geometry"/>
                </mxCell>
                <mxCell id="664" value="Sauvegarder" style="whiteSpace=wrap;html=1;fillColor=#eeeeee;strokeColor=#36393d;fontSize=9;" vertex="1" parent="1">
                    <mxGeometry x="1800" y="1265.5" width="80" height="20" as="geometry"/>
                </mxCell>
                <mxCell id="665" value="" style="whiteSpace=wrap;html=1;" vertex="1" parent="1">
                    <mxGeometry x="2830" y="40" width="480" height="430" as="geometry"/>
                </mxCell>
                <mxCell id="666" value="About" style="text;strokeColor=none;align=left;fillColor=none;html=1;verticalAlign=middle;whiteSpace=wrap;rounded=0;" vertex="1" parent="1">
                    <mxGeometry x="2830" y="20" width="120" height="10" as="geometry"/>
                </mxCell>
                <mxCell id="670" value="" style="whiteSpace=wrap;html=1;" vertex="1" parent="1">
                    <mxGeometry x="2830" y="40" width="480" height="30" as="geometry"/>
                </mxCell>
                <mxCell id="671" value="Header" style="text;strokeColor=none;align=center;fillColor=none;html=1;verticalAlign=middle;whiteSpace=wrap;rounded=0;fontSize=9;" vertex="1" parent="1">
                    <mxGeometry x="2780" y="45" width="40" height="20" as="geometry"/>
                </mxCell>
                <mxCell id="672" value="Logo" style="whiteSpace=wrap;html=1;fillColor=#eeeeee;strokeColor=#36393d;fontSize=9;" vertex="1" parent="1">
                    <mxGeometry x="2840" y="45" width="50" height="20" as="geometry"/>
                </mxCell>
                <mxCell id="673" value="nav" style="whiteSpace=wrap;html=1;" vertex="1" parent="1">
                    <mxGeometry x="3040" y="50" width="160" height="15" as="geometry"/>
                </mxCell>
                <mxCell id="676" value="Copyright" style="whiteSpace=wrap;html=1;fontSize=9;" vertex="1" parent="1">
                    <mxGeometry x="2830" y="580" width="480" height="30" as="geometry"/>
                </mxCell>
                <mxCell id="677" value="Footer" style="text;strokeColor=none;align=center;fillColor=none;html=1;verticalAlign=middle;whiteSpace=wrap;rounded=0;fontSize=9;" vertex="1" parent="1">
                    <mxGeometry x="2780" y="584" width="40" height="20" as="geometry"/>
                </mxCell>
                <mxCell id="678" value="Main" style="text;strokeColor=none;align=center;fillColor=none;html=1;verticalAlign=middle;whiteSpace=wrap;rounded=0;fontSize=9;" vertex="1" parent="1">
                    <mxGeometry x="2780" y="70" width="40" height="20" as="geometry"/>
                </mxCell>
                <mxCell id="684" value="Nos actions" style="text;strokeColor=none;align=left;fillColor=none;html=1;verticalAlign=middle;whiteSpace=wrap;rounded=0;fontSize=16;" vertex="1" parent="1">
                    <mxGeometry x="2880" y="105" width="210" height="20" as="geometry"/>
                </mxCell>
                <mxCell id="702" value="cart" style="whiteSpace=wrap;html=1;" vertex="1" parent="1">
                    <mxGeometry x="3260" y="50" width="40" height="15" as="geometry"/>
                </mxCell>
                <mxCell id="703" value="compte" style="whiteSpace=wrap;html=1;" vertex="1" parent="1">
                    <mxGeometry x="3210" y="50" width="40" height="15" as="geometry"/>
                </mxCell>
                <mxCell id="706" value="" style="edgeStyle=none;orthogonalLoop=1;jettySize=auto;html=1;strokeColor=#009900;strokeWidth=3;" edge="1" parent="1">
                    <mxGeometry width="100" relative="1" as="geometry">
                        <mxPoint x="530" y="650" as="sourcePoint"/>
                        <mxPoint x="680" y="380" as="targetPoint"/>
                        <Array as="points"/>
                    </mxGeometry>
                </mxCell>
                <mxCell id="707" value="" style="edgeStyle=none;orthogonalLoop=1;jettySize=auto;html=1;strokeColor=#009900;strokeWidth=3;" edge="1" parent="1">
                    <mxGeometry width="100" relative="1" as="geometry">
                        <mxPoint x="1190" y="410" as="sourcePoint"/>
                        <mxPoint x="1370" y="400" as="targetPoint"/>
                        <Array as="points"/>
                    </mxGeometry>
                </mxCell>
                <mxCell id="708" value="" style="edgeStyle=none;orthogonalLoop=1;jettySize=auto;html=1;strokeColor=#009900;strokeWidth=3;" edge="1" parent="1">
                    <mxGeometry width="100" relative="1" as="geometry">
                        <mxPoint x="20" y="410" as="sourcePoint"/>
                        <mxPoint x="2780" y="500" as="targetPoint"/>
                        <Array as="points">
                            <mxPoint x="-150" y="410"/>
                            <mxPoint x="-150" y="930"/>
                            <mxPoint x="2530" y="810"/>
                        </Array>
                    </mxGeometry>
                </mxCell>
                <mxCell id="709" value="" style="edgeStyle=none;orthogonalLoop=1;jettySize=auto;html=1;strokeColor=#009900;exitX=1;exitY=0.5;exitDx=0;exitDy=0;strokeWidth=3;" edge="1" parent="1" source="326">
                    <mxGeometry width="100" relative="1" as="geometry">
                        <mxPoint x="1890" y="236" as="sourcePoint"/>
                        <mxPoint x="2130" y="250" as="targetPoint"/>
                        <Array as="points"/>
                    </mxGeometry>
                </mxCell>
                <mxCell id="710" value="" style="edgeStyle=none;orthogonalLoop=1;jettySize=auto;html=1;strokeColor=#009900;strokeWidth=3;" edge="1" parent="1">
                    <mxGeometry width="100" relative="1" as="geometry">
                        <mxPoint x="1190" y="1250" as="sourcePoint"/>
                        <mxPoint x="1420" y="1210" as="targetPoint"/>
                        <Array as="points"/>
                    </mxGeometry>
                </mxCell>
                <mxCell id="711" value="OU" style="text;strokeColor=none;align=center;fillColor=none;html=1;verticalAlign=middle;whiteSpace=wrap;rounded=0;fontColor=#009900;fontStyle=1;fontSize=23;" vertex="1" parent="1">
                    <mxGeometry x="920" y="-20" width="60" height="30" as="geometry"/>
                </mxCell>
                <mxCell id="712" value="" style="edgeStyle=none;orthogonalLoop=1;jettySize=auto;html=1;strokeColor=#009900;strokeWidth=3;startArrow=classic;startFill=1;" edge="1" parent="1">
                    <mxGeometry width="100" relative="1" as="geometry">
                        <mxPoint x="989.63" y="25" as="sourcePoint"/>
                        <mxPoint x="989.63" y="-35" as="targetPoint"/>
                        <Array as="points"/>
                    </mxGeometry>
                </mxCell>
                <mxCell id="714" value="" style="whiteSpace=wrap;html=1;" vertex="1" parent="1">
                    <mxGeometry x="2830" y="460" width="480" height="120" as="geometry"/>
                </mxCell>
                <mxCell id="713" value="Nous contacter" style="text;strokeColor=none;align=left;fillColor=none;html=1;verticalAlign=middle;whiteSpace=wrap;rounded=0;fontSize=16;" vertex="1" parent="1">
                    <mxGeometry x="2880" y="470" width="210" height="20" as="geometry"/>
                </mxCell>
                <mxCell id="716" value="" style="group" vertex="1" connectable="0" parent="1">
                    <mxGeometry x="2880" y="140" width="380" height="120" as="geometry"/>
                </mxCell>
                <mxCell id="680" value="" style="whiteSpace=wrap;html=1;" vertex="1" parent="716">
                    <mxGeometry width="120" height="120" as="geometry"/>
                </mxCell>
                <mxCell id="681" style="edgeStyle=none;html=1;exitX=1;exitY=0;exitDx=0;exitDy=0;endArrow=none;endFill=0;strokeColor=#B3B3B3;entryX=0;entryY=1;entryDx=0;entryDy=0;" edge="1" parent="716" source="680" target="680">
                    <mxGeometry relative="1" as="geometry">
                        <mxPoint x="590" y="-99.99999999999994" as="sourcePoint"/>
                        <mxPoint x="590" y="29.230769230769283" as="targetPoint"/>
                    </mxGeometry>
                </mxCell>
                <mxCell id="682" style="edgeStyle=none;html=1;exitX=1;exitY=1;exitDx=0;exitDy=0;endArrow=none;endFill=0;strokeColor=#B3B3B3;entryX=0;entryY=0;entryDx=0;entryDy=0;" edge="1" parent="716" source="680" target="680">
                    <mxGeometry relative="1" as="geometry">
                        <mxPoint x="670" y="-20" as="sourcePoint"/>
                        <mxPoint x="190" y="220" as="targetPoint"/>
                    </mxGeometry>
                </mxCell>
                <mxCell id="683" value="Image" style="text;strokeColor=none;align=center;fillColor=none;html=1;verticalAlign=middle;whiteSpace=wrap;rounded=0;fontColor=#999999;" vertex="1" parent="716">
                    <mxGeometry x="30" y="100" width="60" height="10" as="geometry"/>
                </mxCell>
                <mxCell id="685" value="Texte" style="whiteSpace=wrap;html=1;fontSize=12;" vertex="1" parent="716">
                    <mxGeometry x="170" y="1" width="210" height="119" as="geometry"/>
                </mxCell>
                <mxCell id="717" value="Nos équipes" style="text;strokeColor=none;align=left;fillColor=none;html=1;verticalAlign=middle;whiteSpace=wrap;rounded=0;fontSize=16;" vertex="1" parent="1">
                    <mxGeometry x="2880" y="280" width="210" height="20" as="geometry"/>
                </mxCell>
                <mxCell id="723" value="Texte" style="whiteSpace=wrap;html=1;fontSize=12;" vertex="1" parent="1">
                    <mxGeometry x="2880" y="316" width="210" height="119" as="geometry"/>
                </mxCell>
                <mxCell id="724" value="" style="group" vertex="1" connectable="0" parent="1">
                    <mxGeometry x="3140" y="315" width="120" height="120" as="geometry"/>
                </mxCell>
                <mxCell id="719" value="" style="whiteSpace=wrap;html=1;" vertex="1" parent="724">
                    <mxGeometry width="120" height="120" as="geometry"/>
                </mxCell>
                <mxCell id="720" style="edgeStyle=none;html=1;exitX=1;exitY=0;exitDx=0;exitDy=0;endArrow=none;endFill=0;strokeColor=#B3B3B3;entryX=0;entryY=1;entryDx=0;entryDy=0;" edge="1" parent="724" source="719" target="719">
                    <mxGeometry relative="1" as="geometry">
                        <mxPoint x="590" y="-99.99999999999994" as="sourcePoint"/>
                        <mxPoint x="590" y="29.230769230769283" as="targetPoint"/>
                    </mxGeometry>
                </mxCell>
                <mxCell id="721" style="edgeStyle=none;html=1;exitX=1;exitY=1;exitDx=0;exitDy=0;endArrow=none;endFill=0;strokeColor=#B3B3B3;entryX=0;entryY=0;entryDx=0;entryDy=0;" edge="1" parent="724" source="719" target="719">
                    <mxGeometry relative="1" as="geometry">
                        <mxPoint x="670" y="-20" as="sourcePoint"/>
                        <mxPoint x="190" y="220" as="targetPoint"/>
                    </mxGeometry>
                </mxCell>
                <mxCell id="722" value="Image" style="text;strokeColor=none;align=center;fillColor=none;html=1;verticalAlign=middle;whiteSpace=wrap;rounded=0;fontColor=#999999;" vertex="1" parent="724">
                    <mxGeometry x="30" y="100" width="60" height="10" as="geometry"/>
                </mxCell>
                <mxCell id="725" value="Texte" style="whiteSpace=wrap;html=1;fontSize=12;" vertex="1" parent="1">
                    <mxGeometry x="2880" y="510" width="380" height="30" as="geometry"/>
                </mxCell>
                <mxCell id="726" value="Retour au catalogue" style="text;strokeColor=none;align=left;fillColor=none;html=1;verticalAlign=middle;whiteSpace=wrap;rounded=0;fontStyle=4;fontSize=9;" vertex="1" parent="1">
                    <mxGeometry x="1460" y="100" width="100" height="30" as="geometry"/>
                </mxCell>
                <mxCell id="727" value="" style="group" vertex="1" connectable="0" parent="1">
                    <mxGeometry x="1460" y="140" width="140" height="130" as="geometry"/>
                </mxCell>
                <mxCell id="379" value="" style="whiteSpace=wrap;html=1;" vertex="1" parent="727">
                    <mxGeometry width="140" height="130" as="geometry"/>
                </mxCell>
                <mxCell id="380" style="edgeStyle=none;html=1;exitX=1;exitY=0;exitDx=0;exitDy=0;endArrow=none;endFill=0;strokeColor=#B3B3B3;entryX=0;entryY=1;entryDx=0;entryDy=0;" edge="1" parent="727" source="379" target="379">
                    <mxGeometry relative="1" as="geometry">
                        <mxPoint x="590" y="-99.99999999999994" as="sourcePoint"/>
                        <mxPoint x="590" y="29.230769230769283" as="targetPoint"/>
                    </mxGeometry>
                </mxCell>
                <mxCell id="381" style="edgeStyle=none;html=1;exitX=1;exitY=1;exitDx=0;exitDy=0;endArrow=none;endFill=0;strokeColor=#B3B3B3;entryX=0;entryY=0;entryDx=0;entryDy=0;" edge="1" parent="727" source="379" target="379">
                    <mxGeometry relative="1" as="geometry">
                        <mxPoint x="670" y="-20" as="sourcePoint"/>
                        <mxPoint x="190" y="220" as="targetPoint"/>
                    </mxGeometry>
                </mxCell>
                <mxCell id="382" value="Image" style="text;strokeColor=none;align=center;fillColor=none;html=1;verticalAlign=middle;whiteSpace=wrap;rounded=0;fontColor=#999999;" vertex="1" parent="727">
                    <mxGeometry x="40" y="111" width="60" height="10" as="geometry"/>
                </mxCell>
            </root>
        </mxGraphModel>
    </diagram>
</mxfile>